<svg width="24" height="24" viewBox="0 0 24 24" fill="none" xmlns="http://www.w3.org/2000/svg">
<path d="M16.75 17V15C16.75 14.6685 16.8818 14.3506 17.1162 14.1162C17.3506 13.8818 17.6685 13.75 18 13.75C18.3315 13.75 18.6494 13.8818 18.8838 14.1162C19.1182 14.3506 19.25 14.6685 19.25 15V17C19.25 17.4142 19.5858 17.75 20 17.75C20.4142 17.75 20.75 17.4142 20.75 17V15C20.75 14.2707 20.4601 13.5714 19.9443 13.0557C19.4286 12.5399 18.7293 12.25 18 12.25C17.2707 12.25 16.5714 12.5399 16.0557 13.0557C15.5399 13.5714 15.25 14.2707 15.25 15V17C15.25 17.4142 15.5858 17.75 16 17.75C16.4142 17.75 16.75 17.4142 16.75 17Z" fill="#0B0D0E"/>
<path d="M14.75 18C14.75 17.8619 14.8619 17.75 15 17.75H21C21.1381 17.75 21.25 17.8619 21.25 18V21C21.25 21.1381 21.1381 21.25 21 21.25H15C14.8619 21.25 14.75 21.1381 14.75 21V18ZM13.25 21C13.25 21.9665 14.0335 22.75 15 22.75H21C21.9665 22.75 22.75 21.9665 22.75 21V18C22.75 17.0335 21.9665 16.25 21 16.25H15C14.0335 16.25 13.25 17.0335 13.25 18V21Z" fill="#0B0D0E"/>
<path d="M2.25 18.9995V9.99951C2.25 9.59973 2.33759 9.20494 2.50586 8.84229C2.67423 8.47943 2.9191 8.15714 3.22461 7.89893L10.2207 1.90283L10.2246 1.89893C10.721 1.47943 11.3501 1.24951 12 1.24951C12.5686 1.24951 13.1213 1.42547 13.583 1.75049L13.7754 1.89893L13.7793 1.90283L20.7744 7.89893C21.0799 8.15715 21.3258 8.47941 21.4941 8.84229C21.6625 9.20514 21.7501 9.60048 21.75 10.0005C21.7497 10.4145 21.414 10.7495 21 10.7495C20.5858 10.7494 20.2499 10.4137 20.25 9.99951C20.25 9.81778 20.2103 9.63799 20.1338 9.47314C20.0573 9.3083 19.9455 9.16175 19.8066 9.04443L19.8027 9.0415L12.8027 3.0415C12.5778 2.85324 12.2934 2.74951 12 2.74951C11.7063 2.74951 11.4213 2.85196 11.1963 3.04053L4.19727 9.0415L4.19336 9.04443C4.05455 9.16175 3.94274 9.3083 3.86621 9.47314C3.78972 9.638 3.75 9.81778 3.75 9.99951V18.9995C3.75 19.331 3.88179 19.6499 4.11621 19.8843C4.35061 20.1185 4.6686 20.2495 5 20.2495L10 20.2505C10.4142 20.2505 10.75 20.5863 10.75 21.0005C10.7497 21.4145 10.4141 21.7495 10 21.7495H5C4.27077 21.7495 3.57136 21.4604 3.05566 20.9448C2.53994 20.4291 2.25 19.7289 2.25 18.9995Z" fill="#0B0D0E"/>
</svg>
