<svg width="24" height="24" viewBox="0 0 24 24" fill="none" xmlns="http://www.w3.org/2000/svg">
<path d="M10.4697 16.4697C10.7626 16.1768 11.2374 16.1768 11.5303 16.4697L13.5303 18.4697C13.6576 18.597 13.8092 18.6976 13.9756 18.7665C14.1419 18.8354 14.32 18.871 14.5 18.871C14.68 18.871 14.8581 18.8354 15.0244 18.7665C15.1908 18.6976 15.3424 18.597 15.4697 18.4697C15.5971 18.3423 15.6977 18.1907 15.7666 18.0244C15.8355 17.858 15.8711 17.68 15.8711 17.4999C15.8711 17.3199 15.8355 17.1419 15.7666 16.9755C15.6977 16.8092 15.5971 16.6576 15.4697 16.5302C15.1768 16.2373 15.1768 15.7626 15.4697 15.4697C15.7626 15.1768 16.2374 15.1768 16.5303 15.4697C16.7969 15.7363 17.008 16.0529 17.1523 16.4013C17.2966 16.7497 17.3711 17.1229 17.3711 17.4999C17.3711 17.877 17.2966 18.2502 17.1523 18.5986C17.008 18.9469 16.7969 19.2636 16.5303 19.5302C16.2637 19.7968 15.947 20.008 15.5986 20.1523C15.2503 20.2966 14.8771 20.371 14.5 20.371C14.1229 20.371 13.7497 20.2966 13.4014 20.1523C13.053 20.008 12.7364 19.7968 12.4697 19.5302L10.4697 17.5302C10.1768 17.2373 10.1768 16.7626 10.4697 16.4697Z" fill="#0B0D0E"/>
<path d="M13.4695 13.4692C13.7623 13.1765 14.2372 13.1767 14.53 13.4692L17.03 15.9692C17.2872 16.2263 17.6362 16.3715 17.9998 16.3715C18.3635 16.3715 18.7123 16.2263 18.9695 15.9692C19.2265 15.7121 19.3707 15.3639 19.3709 15.0004C19.3709 14.6368 19.2266 14.2879 18.9695 14.0307L15.0896 10.1498C14.6677 9.72854 14.096 9.49261 13.4998 9.49261C12.9036 9.49267 12.3317 9.72952 11.9099 10.1508L11.909 10.1498L11.03 11.0307C10.4916 11.569 9.76113 11.8715 8.99977 11.8715C8.23839 11.8715 7.50791 11.569 6.9695 11.0307C6.43113 10.4923 6.1288 9.76177 6.12868 9.00042C6.12868 8.2389 6.43102 7.50765 6.9695 6.96917L9.78004 4.1596C10.8105 3.13189 12.155 2.47627 13.5994 2.29828C15.0428 2.12051 16.5042 2.42939 17.7527 3.17523L18.2234 3.4555L18.2273 3.45746C18.4934 3.61807 18.81 3.67378 19.115 3.61371L20.8523 3.26507C21.2583 3.18348 21.6534 3.446 21.7351 3.85199C21.8168 4.25794 21.5541 4.65295 21.1482 4.7348L19.408 5.08538H19.405C18.7351 5.21734 18.0407 5.09471 17.4558 4.74261V4.74456L16.9861 4.46429L16.9851 4.46331C16.0226 3.88786 14.895 3.65037 13.782 3.78753C12.669 3.92477 11.6336 4.42922 10.8396 5.22113L8.03004 8.0307C7.77309 8.28784 7.62868 8.63689 7.62868 9.00042C7.6288 9.36378 7.77321 9.71215 8.03004 9.96917C8.28716 10.2263 8.63616 10.3715 8.99977 10.3715C9.36347 10.3715 9.71233 10.2263 9.9695 9.96917L10.8494 9.08929C11.5524 8.3872 12.5062 7.99267 13.4998 7.99261C14.4315 7.99261 15.3277 8.33932 16.0154 8.96136L16.1502 9.08929L20.03 12.9692C20.5685 13.5077 20.8709 14.2389 20.8709 15.0004C20.8707 15.7618 20.5684 16.4923 20.03 17.0307C19.4916 17.569 18.7611 17.8715 17.9998 17.8715C17.2384 17.8715 16.5079 17.569 15.9695 17.0307L13.4695 14.5307C13.1766 14.2378 13.1766 13.7621 13.4695 13.4692Z" fill="#0B0D0E"/>
<path d="M20.9316 2.25288C21.344 2.2154 21.7094 2.51931 21.7471 2.93159L22.7471 13.9316C22.7661 14.1414 22.6958 14.3502 22.5537 14.5058C22.4116 14.6613 22.2107 14.75 22 14.75H20C19.5858 14.75 19.25 14.4142 19.25 14C19.25 13.5857 19.5858 13.25 20 13.25H21.1787L20.2529 3.06831C20.2154 2.65595 20.5194 2.2906 20.9316 2.25288Z" fill="#0B0D0E"/>
<path d="M3.06835 2.25288C3.48064 2.2906 3.78455 2.65595 3.74707 3.06831L2.77832 13.7177L9.03027 19.9697C9.28744 20.2269 9.6363 20.371 10 20.371C10.3637 20.371 10.7125 20.2269 10.9697 19.9697C11.2269 19.7125 11.3711 19.3636 11.3711 19C11.3711 18.6363 11.2269 18.2874 10.9697 18.0302C10.6768 17.7373 10.6768 17.2626 10.9697 16.9697C11.2626 16.6768 11.7374 16.6768 12.0303 16.9697C12.5687 17.5082 12.8711 18.2384 12.8711 19C12.8711 19.7615 12.5687 20.4917 12.0303 21.0302C11.4918 21.5687 10.7615 21.871 10 21.871C9.23847 21.871 8.5082 21.5687 7.96972 21.0302L1.46972 14.5302C1.31233 14.3728 1.23277 14.1533 1.25292 13.9316L2.25293 2.93159C2.29065 2.51931 2.65599 2.2154 3.06835 2.25288Z" fill="#0B0D0E"/>
<path d="M11 3.25C11.4142 3.25 11.75 3.58579 11.75 4C11.75 4.41421 11.4142 4.75 11 4.75H3C2.58579 4.75 2.25 4.41421 2.25 4C2.25 3.58579 2.58579 3.25 3 3.25H11Z" fill="#0B0D0E"/>
</svg>
