<svg width="24" height="24" viewBox="0 0 24 24" fill="none" xmlns="http://www.w3.org/2000/svg">
<path d="M8.25 4C8.25 3.66848 8.11821 3.35063 7.88379 3.11621C7.64937 2.88179 7.33152 2.75 7 2.75H4C3.66848 2.75 3.35063 2.88179 3.11621 3.11621C2.88179 3.35063 2.75 3.66848 2.75 4C2.75 8.57498 4.56773 12.9623 7.80273 16.1973C11.0377 19.4323 15.425 21.25 20 21.25C20.3315 21.25 20.6494 21.1182 20.8838 20.8838C21.1182 20.6494 21.25 20.3315 21.25 20V17C21.25 16.6685 21.1182 16.3506 20.8838 16.1162C20.6494 15.8818 20.3315 15.75 20 15.75H17C16.8061 15.75 16.6149 15.7952 16.4414 15.8818C16.2678 15.9686 16.1164 16.0948 16 16.25L15.9961 16.2549L15.6416 16.7197C15.4008 17.0359 15.0594 17.261 14.6738 17.3574C14.288 17.4538 13.88 17.416 13.5186 17.25C13.5129 17.2474 13.5076 17.244 13.502 17.2412C10.5757 15.8051 8.2075 13.44 6.76758 10.5156L6.76562 10.5127C6.58856 10.1495 6.54269 9.736 6.63574 9.34277C6.72888 8.94948 6.95515 8.5998 7.27637 8.35449L7.28223 8.35059L7.75 8C7.90525 7.88357 8.03138 7.73216 8.11816 7.55859C8.20482 7.38513 8.25 7.19391 8.25 7V4ZM9.75 7C9.75 7.42678 9.65076 7.84774 9.45996 8.22949C9.26906 8.61129 8.99186 8.94406 8.65039 9.2002L8.18652 9.5459L8.1875 9.54688C8.1416 9.58192 8.10901 9.63229 8.0957 9.68848C8.0827 9.74365 8.08906 9.80135 8.11328 9.85254L8.36523 10.3389C9.672 12.7376 11.6908 14.6776 14.1494 15.8877C14.1999 15.9098 14.256 15.9147 14.3096 15.9014C14.3647 15.8876 14.4138 15.8558 14.4482 15.8105L14.4492 15.8096L14.8037 15.3447C15.0593 15.0056 15.3906 14.73 15.7705 14.54C16.1523 14.3492 16.5732 14.25 17 14.25H20C20.7293 14.25 21.4286 14.5399 21.9443 15.0557C22.4601 15.5714 22.75 16.2707 22.75 17V20C22.75 20.7293 22.4601 21.4286 21.9443 21.9443C21.4286 22.4601 20.7293 22.75 20 22.75C15.0272 22.75 10.2585 20.7741 6.74219 17.2578C3.22588 13.7415 1.25 8.97281 1.25 4C1.25 3.27065 1.53994 2.57139 2.05566 2.05566C2.57139 1.53994 3.27065 1.25 4 1.25H7C7.72935 1.25 8.42861 1.53994 8.94434 2.05566C9.46006 2.57139 9.75 3.27065 9.75 4V7Z" fill="#0B0D0E"/>
</svg>
