<svg width="24" height="24" viewBox="0 0 24 24" fill="none" xmlns="http://www.w3.org/2000/svg">
<path d="M17.4697 5.46967C17.7626 5.17678 18.2374 5.17678 18.5303 5.46967C18.8232 5.76256 18.8232 6.23732 18.5303 6.53022L13.0606 11.9999L18.5303 17.4697C18.8232 17.7626 18.8232 18.2373 18.5303 18.5302C18.2374 18.8231 17.7626 18.8231 17.4697 18.5302L12 13.0605L6.53028 18.5302C6.23738 18.8231 5.76262 18.8231 5.46973 18.5302C5.17684 18.2373 5.17684 17.7626 5.46973 17.4697L10.9395 11.9999L5.46973 6.53022C5.17684 6.23732 5.17684 5.76256 5.46973 5.46967C5.76262 5.17678 6.23738 5.17678 6.53028 5.46967L12 10.9394L17.4697 5.46967Z" fill="#0B0D0E"/>
</svg>
