<svg width="24" height="24" viewBox="0 0 24 24" fill="none" xmlns="http://www.w3.org/2000/svg">
<path d="M20.9999 21.25C21.4141 21.25 21.7498 21.5858 21.7499 22C21.7499 22.4142 21.4141 22.75 20.9999 22.75H2.99988C2.58571 22.75 2.24988 22.4142 2.24988 22C2.24993 21.5859 2.58574 21.2501 2.99988 21.25H20.9999ZM5.24988 18V11C5.24993 10.5859 5.58574 10.2501 5.99988 10.25C6.41407 10.25 6.74983 10.5858 6.74988 11V18C6.74988 18.4142 6.41409 18.75 5.99988 18.75C5.58572 18.75 5.24988 18.4142 5.24988 18ZM9.24988 18V11C9.24993 10.5859 9.58574 10.2501 9.99988 10.25C10.4141 10.25 10.7498 10.5858 10.7499 11V18C10.7499 18.4142 10.4141 18.75 9.99988 18.75C9.58571 18.75 9.24988 18.4142 9.24988 18ZM13.2499 18V11C13.2499 10.5859 13.5857 10.2501 13.9999 10.25C14.4141 10.25 14.7498 10.5858 14.7499 11V18C14.7499 18.4142 14.4141 18.75 13.9999 18.75C13.5857 18.75 13.2499 18.4142 13.2499 18ZM17.2499 18V11C17.2499 10.5859 17.5857 10.2501 17.9999 10.25C18.4141 10.25 18.7498 10.5858 18.7499 11V18C18.7499 18.4142 18.4141 18.75 17.9999 18.75C17.5857 18.75 17.2499 18.4142 17.2499 18ZM12.0028 1.24708C12.4213 1.24851 12.8345 1.34526 13.2098 1.53029L21.0751 5.37697L21.0761 5.37794C22.2661 5.96099 21.8498 7.74978 20.5262 7.75001H3.47351C2.14593 7.74959 1.73871 5.95928 2.92371 5.37794L10.7899 1.52443L10.7919 1.52345C11.169 1.34024 11.5835 1.24572 12.0028 1.24708ZM11.9979 2.74708C11.8074 2.74646 11.6195 2.78985 11.4481 2.87306L4.55262 6.25001H19.4462L12.5507 2.87794L12.5477 2.87599C12.3769 2.79157 12.1885 2.74773 11.9979 2.74708Z" fill="#0B0D0E"/>
</svg>
