<svg width="24" height="24" viewBox="0 0 24 24" fill="none" xmlns="http://www.w3.org/2000/svg">
<path d="M17 12.25C17.4142 12.25 17.75 12.5858 17.75 13C17.75 13.4142 17.4142 13.75 17 13.75H11C10.5858 13.75 10.25 13.4142 10.25 13C10.25 12.5858 10.5858 12.25 11 12.25H17Z" fill="#0B0D0E"/>
<path d="M13 16.25C13.4142 16.25 13.75 16.5858 13.75 17C13.75 17.4142 13.4142 17.75 13 17.75H7C6.58579 17.75 6.25 17.4142 6.25 17C6.25 16.5858 6.58579 16.25 7 16.25H13Z" fill="#0B0D0E"/>
<path d="M7.00977 12.25C7.42398 12.25 7.75977 12.5858 7.75977 13C7.75977 13.4142 7.42398 13.75 7.00977 13.75H7C6.58579 13.75 6.25 13.4142 6.25 13C6.25 12.5858 6.58579 12.25 7 12.25H7.00977Z" fill="#0B0D0E"/>
<path d="M17.0098 16.25C17.424 16.25 17.7598 16.5858 17.7598 17C17.7598 17.4142 17.424 17.75 17.0098 17.75H17C16.5858 17.75 16.25 17.4142 16.25 17C16.25 16.5858 16.5858 16.25 17 16.25H17.0098Z" fill="#0B0D0E"/>
<path d="M7.25 6V2C7.25 1.58579 7.58579 1.25 8 1.25C8.41421 1.25 8.75 1.58579 8.75 2V6C8.75 6.41421 8.41421 6.75 8 6.75C7.58579 6.75 7.25 6.41421 7.25 6Z" fill="#0B0D0E"/>
<path d="M15.25 6V2C15.25 1.58579 15.5858 1.25 16 1.25C16.4142 1.25 16.75 1.58579 16.75 2V6C16.75 6.41421 16.4142 6.75 16 6.75C15.5858 6.75 15.25 6.41421 15.25 6Z" fill="#0B0D0E"/>
<path d="M20.25 6C20.25 5.30964 19.6904 4.75 19 4.75H5C4.30964 4.75 3.75 5.30964 3.75 6V19C3.75 19.6904 4.30964 20.25 5 20.25H19C19.6904 20.25 20.25 19.6904 20.25 19V6ZM21.75 19C21.75 20.5188 20.5188 21.75 19 21.75H5C3.48122 21.75 2.25 20.5188 2.25 19V6C2.25 4.48122 3.48122 3.25 5 3.25H19C20.5188 3.25 21.75 4.48122 21.75 6V19Z" fill="#0B0D0E"/>
<path d="M21 8.25C21.4142 8.25 21.75 8.58579 21.75 9C21.75 9.41421 21.4142 9.75 21 9.75H3C2.58579 9.75 2.25 9.41421 2.25 9C2.25 8.58579 2.58579 8.25 3 8.25H21Z" fill="#0B0D0E"/>
</svg>
