<svg width="24" height="24" viewBox="0 0 24 24" fill="none" xmlns="http://www.w3.org/2000/svg">
<path d="M19.25 6.53429V6.00011C19.25 5.35732 19.0593 4.72891 18.7022 4.19445C18.3451 3.66011 17.8379 3.24316 17.2442 2.99718C16.6504 2.75123 15.9966 2.68727 15.3662 2.81261C14.7358 2.93801 14.1567 3.24774 13.7022 3.70226C13.2476 4.15678 12.9379 4.73588 12.8125 5.36632C12.6872 5.99669 12.7511 6.65046 12.9971 7.24425C13.2431 7.83797 13.66 8.3452 14.1944 8.70226C14.7288 9.05937 15.3572 9.25011 16 9.25011H17C17.4142 9.25011 17.75 9.5859 17.75 10.0001C17.75 10.4143 17.4142 10.7501 17 10.7501H16C15.0606 10.7501 14.1425 10.4712 13.3613 9.94933C12.5802 9.42739 11.9709 8.68544 11.6113 7.81749C11.252 6.94965 11.1576 5.99462 11.3408 5.07335C11.5241 4.15194 11.9773 3.30601 12.6416 2.64171C13.3059 1.97741 14.1519 1.52421 15.0733 1.34093C15.9945 1.15768 16.9496 1.25206 17.8174 1.61144C18.6854 1.97095 19.4273 2.58031 19.9492 3.36144C20.4711 4.14256 20.75 5.06068 20.75 6.00011V6.53429C20.7499 6.94842 20.4142 7.28429 20 7.28429C19.5859 7.28429 19.2501 6.94842 19.25 6.53429Z" fill="#0B0D0E"/>
<path d="M13.4587 1.98632C13.8087 1.76475 14.2723 1.8688 14.4939 2.21875C14.7154 2.56867 14.6113 3.03229 14.2615 3.2539L12.1921 4.56347L12.1911 4.56445C11.0909 5.25976 10.2877 6.33904 9.93821 7.59277C9.58876 8.84646 9.71771 10.1854 10.2995 11.3496C10.8816 12.5139 11.8759 13.4207 13.0886 13.8935C14.3014 14.3664 15.6474 14.3722 16.864 13.9092L19.154 13.0391L19.4148 12.9268C20.0099 12.6394 20.5059 12.1763 20.8327 11.5967C21.2062 10.9344 21.3351 10.1619 21.198 9.41406C21.0608 8.66621 20.6659 7.98958 20.0818 7.50292C19.4976 7.01634 18.761 6.74983 18.0007 6.74999H16.9997C16.5857 6.74984 16.2497 6.41411 16.2497 5.99999C16.2498 5.58593 16.5857 5.25015 16.9997 5.25H17.9997C19.1111 5.2496 20.1878 5.63929 21.0417 6.35058C21.8954 7.06177 22.473 8.0497 22.6736 9.14257C22.8741 10.2356 22.6852 11.3649 22.1394 12.333C21.6276 13.2406 20.8323 13.953 19.8786 14.3633L19.6863 14.4414L17.3962 15.3105L17.3972 15.3115C15.833 15.9068 14.103 15.899 12.5437 15.291C10.9844 14.683 9.70608 13.5175 8.95774 12.0205C8.20954 10.5236 8.04448 8.80148 8.49387 7.18945C8.94337 5.57747 9.97559 4.18976 11.3904 3.29589L13.4587 1.98632Z" fill="#0B0D0E"/>
<path d="M4.36819 16.2618C7.31853 15.735 9.13891 16.2462 10.4414 17.1935C11.7394 18.1375 12.5007 19.7298 13.0117 21.2628C13.0798 21.4668 13.0562 21.6901 12.9483 21.8761C12.8403 22.0621 12.6582 22.1932 12.4473 22.2355C10.4045 22.644 8.69457 22.6854 7.16506 21.8702C7.16092 21.8682 7.1565 21.8665 7.15237 21.8644C7.1498 21.863 7.14712 21.8618 7.14455 21.8605C5.7148 21.137 4.51805 19.6363 3.78225 17.2189C3.71983 17.0138 3.74844 16.7914 3.86037 16.6085C3.97231 16.4257 4.15714 16.2995 4.36819 16.2618ZM9.55862 18.4064C8.76561 17.8297 7.59601 17.3817 5.50686 17.6114C6.10395 19.1223 6.88305 19.9838 7.6553 20.4318L7.83498 20.5294L7.85549 20.5402C8.75355 21.0237 9.80667 21.1265 11.2822 20.9142C10.838 19.8227 10.2851 18.9347 9.55862 18.4064Z" fill="#0B0D0E"/>
<path d="M9.42385 11.3351C9.79136 11.144 10.2445 11.2869 10.4356 11.6544C10.6264 12.0218 10.4834 12.474 10.1162 12.6652C7.40763 14.0734 5.55474 16.4396 4.37112 18.4991C3.78242 19.5235 3.36782 20.4582 3.10061 21.1349C2.96715 21.4729 2.87075 21.7459 2.80862 21.9318C2.77768 22.0243 2.75467 22.0951 2.74026 22.1417C2.73305 22.1651 2.72784 22.1827 2.72463 22.1935C2.72305 22.1988 2.72232 22.2031 2.7217 22.2052L2.72073 22.2071C2.60688 22.6053 2.1922 22.8346 1.79397 22.7208C1.39577 22.607 1.16554 22.1923 1.27932 21.7941V21.7911C1.27974 21.7897 1.2806 21.7876 1.28127 21.7853C1.28261 21.7807 1.28481 21.7746 1.28713 21.7667C1.29185 21.7508 1.2988 21.728 1.30764 21.6993C1.32533 21.6421 1.35092 21.5594 1.38577 21.4552C1.45554 21.2465 1.561 20.949 1.7051 20.5841C1.99317 19.8546 2.43894 18.8514 3.07131 17.7511C4.33017 15.5608 6.3628 12.9267 9.42385 11.3351Z" fill="#0B0D0E"/>
<path d="M18.25 8.00011C18.25 7.30976 17.6901 6.74999 16.9997 6.74999C16.3094 6.74999 15.75 7.30976 15.75 8.00011C15.75 8.69047 16.3097 9.25011 17 9.25011C17.6904 9.25011 18.25 8.69047 18.25 8.00011ZM19.75 8.00011C19.75 9.5189 18.5188 10.7501 17 10.7501C15.4812 10.7501 14.25 9.5189 14.25 8.00011C14.25 6.48133 15.4809 5.25 16.9997 5.25C18.5185 5.25 19.75 6.48133 19.75 8.00011Z" fill="#0B0D0E"/>
</svg>
