<svg width="24" height="24" viewBox="0 0 24 24" fill="none" xmlns="http://www.w3.org/2000/svg">
<path d="M20.9999 20.2505C21.4141 20.2505 21.7499 20.5863 21.7499 21.0005C21.7499 21.4147 21.4141 21.7505 20.9999 21.7505H12.9999C12.5857 21.7505 12.2499 21.4147 12.2499 21.0005C12.2499 20.5863 12.5857 20.2505 12.9999 20.2505H20.9999Z" fill="#0B0D0E"/>
<path d="M14.4696 4.47021C14.7625 4.17732 15.2373 4.17732 15.5302 4.47021L19.5302 8.47021C19.8231 8.76311 19.8231 9.23787 19.5302 9.53076C19.2373 9.82366 18.7625 9.82366 18.4697 9.53076L14.4696 5.53076C14.1768 5.23787 14.1768 4.76311 14.4696 4.47021Z" fill="#0B0D0E"/>
<path d="M21.25 4.81934C21.2501 4.27064 21.0315 3.74448 20.6435 3.35645C20.2557 2.96857 19.7301 2.75019 19.1816 2.75C18.6331 2.74993 18.1067 2.9678 17.7187 3.35547L4.37206 16.7051C4.2275 16.8492 4.11878 17.0266 4.05858 17.2217L4.05956 17.2227L2.87401 21.124L6.77831 19.9404C6.97404 19.8809 7.15295 19.7743 7.29784 19.6299L20.6435 6.28223C21.0315 5.89433 21.2499 5.36797 21.25 4.81934ZM22.75 4.81934C22.7499 5.70679 22.4191 6.56022 21.8262 7.21484L21.7041 7.34277L8.35643 20.6924C8.07755 20.9704 7.74278 21.1853 7.37499 21.3223L7.21483 21.376L2.86132 22.6963H2.85936C2.64338 22.7611 2.414 22.7669 2.1953 22.7119C1.97646 22.6569 1.77687 22.5432 1.61718 22.3838C1.45756 22.2244 1.34347 22.0253 1.28807 21.8066C1.23271 21.5879 1.23811 21.3578 1.30272 21.1416L1.3037 21.1387L2.62401 16.7861L2.62499 16.7842C2.75715 16.3533 2.99337 15.9618 3.31249 15.6436L16.6572 2.29492C17.3266 1.62571 18.2351 1.24988 19.1816 1.25C20.1281 1.25019 21.0359 1.62658 21.7051 2.2959C22.3741 2.96525 22.7501 3.87293 22.75 4.81934Z" fill="#0B0D0E"/>
</svg>
