<svg width="24" height="24" viewBox="0 0 24 24" fill="none" xmlns="http://www.w3.org/2000/svg">
<path d="M21.2501 4.81885C21.2501 4.27015 21.0316 3.744 20.6436 3.35596C20.2558 2.96808 19.7302 2.7497 19.1817 2.74951C18.6332 2.74944 18.1068 2.96731 17.7188 3.35498L16.0675 5.00635L18.9932 7.93213L20.6436 6.28174C21.0316 5.89384 21.25 5.36748 21.2501 4.81885ZM4.37215 16.7046C4.22759 16.8487 4.11887 17.0262 4.05867 17.2212L4.05965 17.2222L2.8741 21.1235L6.7784 19.9399C6.97413 19.8804 7.15304 19.7738 7.29793 19.6294L17.9327 8.99268L15.0069 6.06689L4.37215 16.7046ZM22.7501 4.81885C22.75 5.7063 22.4192 6.55973 21.8263 7.21436L21.7042 7.34229L19.6036 9.44189C19.5813 9.47227 19.5578 9.50231 19.5304 9.52979C19.5023 9.55784 19.4716 9.5823 19.4405 9.60498L8.35653 20.6919C8.07764 20.9699 7.74288 21.1848 7.37508 21.3218L7.21492 21.3755L2.86141 22.6958H2.85945C2.64347 22.7607 2.41409 22.7664 2.19539 22.7114C1.97655 22.6564 1.77696 22.5427 1.61727 22.3833C1.45766 22.2239 1.34357 22.0248 1.28817 21.8062C1.2328 21.5874 1.2382 21.3573 1.30281 21.1411L1.30379 21.1382L2.6241 16.7856L2.62508 16.7837C2.75725 16.3528 2.99346 15.9613 3.31258 15.6431L14.3956 4.55518C14.4177 4.52521 14.4427 4.49637 14.4698 4.46924C14.4966 4.44252 14.5253 4.41881 14.5548 4.39697L16.6573 2.29443C17.3267 1.62522 18.2352 1.24939 19.1817 1.24951C20.1282 1.2497 21.036 1.62609 21.7052 2.29541C22.3742 2.96476 22.7502 3.87245 22.7501 4.81885Z" fill="#0B0D0E"/>
</svg>
