<svg width="24" height="24" viewBox="0 0 24 24" fill="none" xmlns="http://www.w3.org/2000/svg">
<path d="M13.5645 1.53506C14.2496 1.25125 15.004 1.17751 15.7314 1.32217C16.4589 1.46687 17.1269 1.82409 17.6514 2.34854C18.1758 2.87299 18.533 3.54103 18.6777 4.26846C18.8224 4.99586 18.7487 5.75026 18.4648 6.43545C18.2067 7.05851 17.784 7.59719 17.2461 7.99991C17.784 8.40263 18.2067 8.94131 18.4648 9.56436C18.7487 10.2496 18.8224 11.004 18.6777 11.7314C18.533 12.4588 18.1758 13.1268 17.6514 13.6513C17.1269 14.1757 16.4589 14.5329 15.7314 14.6776C15.004 14.8223 14.2496 14.7486 13.5645 14.4648C12.9414 14.2066 12.4027 13.7839 12 13.246C11.5973 13.7839 11.0586 14.2066 10.4355 14.4648C9.75035 14.7486 8.99595 14.8223 8.26855 14.6776C7.54113 14.5329 6.87308 14.1757 6.34863 13.6513C5.82419 13.1268 5.46696 12.4588 5.32227 11.7314C5.1776 11.004 5.25134 10.2496 5.53516 9.56436C5.7932 8.94155 6.21532 8.40258 6.75293 7.99991C6.21532 7.59724 5.7932 7.05827 5.53516 6.43545C5.25134 5.75026 5.1776 4.99586 5.32227 4.26846C5.46696 3.54103 5.82419 2.87299 6.34863 2.34854C6.87308 1.82409 7.54113 1.46687 8.26855 1.32217C8.99595 1.1775 9.75035 1.25125 10.4355 1.53506C11.0584 1.79311 11.5973 2.21523 12 2.75284C12.4027 2.21523 12.9416 1.79311 13.5645 1.53506ZM11.25 5.99991V4.99991C11.25 4.55496 11.1183 4.11988 10.8711 3.74991C10.6239 3.37993 10.2724 3.09111 9.86133 2.92081C9.45035 2.75058 8.99782 2.7062 8.56152 2.79288C8.12507 2.87969 7.72385 3.09442 7.40918 3.40909C7.09451 3.72376 6.87979 4.12497 6.79297 4.56143C6.70629 4.99773 6.75067 5.45026 6.9209 5.86124C7.0912 6.27232 7.38002 6.62379 7.75 6.871C8.11998 7.11817 8.55505 7.24991 9 7.24991H10C10.4142 7.24991 10.75 7.5857 10.75 7.99991C10.75 8.41412 10.4142 8.74991 10 8.74991H9C8.55505 8.74991 8.11998 8.88165 7.75 9.12881C7.38002 9.37602 7.0912 9.7275 6.9209 10.1386C6.75067 10.5496 6.70629 11.0021 6.79297 11.4384C6.87979 11.8748 7.09451 12.2761 7.40918 12.5907C7.72385 12.9054 8.12507 13.1201 8.56152 13.2069C8.99782 13.2936 9.45035 13.2492 9.86133 13.079C10.2724 12.9087 10.6239 12.6199 10.8711 12.2499C11.1183 11.8799 11.25 11.4449 11.25 10.9999V9.99991C11.25 9.58569 11.5858 9.24991 12 9.24991C12.4142 9.24991 12.75 9.58569 12.75 9.99991V10.9999C12.75 11.4449 12.8817 11.8799 13.1289 12.2499C13.3761 12.6199 13.7276 12.9087 14.1387 13.079C14.5496 13.2492 15.0022 13.2936 15.4385 13.2069C15.8749 13.1201 16.2762 12.9054 16.5908 12.5907C16.9055 12.2761 17.1202 11.8748 17.207 11.4384C17.2937 11.0021 17.2493 10.5496 17.0791 10.1386C16.9088 9.7275 16.62 9.37602 16.25 9.12881C15.88 8.88165 15.4449 8.74991 15 8.74991H14C13.5858 8.74991 13.25 8.41412 13.25 7.99991C13.25 7.5857 13.5858 7.24991 14 7.24991H15C15.4449 7.24991 15.88 7.11817 16.25 6.871C16.62 6.62379 16.9088 6.27232 17.0791 5.86124C17.2493 5.45026 17.2937 4.99773 17.207 4.56143C17.1202 4.12497 16.9055 3.72376 16.5908 3.40909C16.2762 3.09442 15.8749 2.87969 15.4385 2.79288C15.0022 2.7062 14.5496 2.75058 14.1387 2.92081C13.7276 3.09111 13.3761 3.37993 13.1289 3.74991C12.8817 4.11988 12.75 4.55496 12.75 4.99991V5.99991C12.75 6.41412 12.4142 6.74991 12 6.74991C11.5858 6.74991 11.25 6.41412 11.25 5.99991Z" fill="#0B0D0E"/>
<path d="M13.25 7.99991C13.25 7.30955 12.6904 6.74991 12 6.74991C11.3096 6.74991 10.75 7.30955 10.75 7.99991C10.75 8.69026 11.3096 9.24991 12 9.24991C12.6904 9.24991 13.25 8.69026 13.25 7.99991ZM14.75 7.99988C14.75 9.51866 13.5188 10.7499 12 10.7499C10.4812 10.7499 9.25 9.51866 9.25 7.99988C9.25 6.48109 10.4812 5.24988 12 5.24988C13.5188 5.24988 14.75 6.48109 14.75 7.99988Z" fill="#0B0D0E"/>
<path d="M11.25 21.9999L11.25 9.99991C11.25 9.58569 11.5858 9.24991 12 9.24991C12.4142 9.24991 12.75 9.58569 12.75 9.99991V21.9999C12.75 22.4141 12.4142 22.7499 12 22.7499C11.5858 22.7499 11.25 22.4141 11.25 21.9999Z" fill="#0B0D0E"/>
<path d="M19 16.2499C19.4142 16.2499 19.75 16.5857 19.75 16.9999C19.75 18.9109 18.9303 20.3949 17.4971 21.37C16.1014 22.3195 14.1827 22.7499 12 22.7499C11.5858 22.7499 11.25 22.4141 11.25 21.9999C11.25 20.0888 12.0697 18.6048 13.5029 17.6298C14.8986 16.6803 16.8173 16.2499 19 16.2499ZM18.1855 17.7733C16.5539 17.8682 15.2547 18.2523 14.3467 18.87C13.5252 19.4289 12.9892 20.1999 12.8135 21.2255C14.4456 21.1307 15.7451 20.7476 16.6533 20.1298C17.475 19.5707 18.01 18.7992 18.1855 17.7733Z" fill="#0B0D0E"/>
<path d="M5 16.2499C7.18267 16.2499 9.10143 16.6803 10.4971 17.6298C11.9303 18.6048 12.75 20.0888 12.75 21.9999C12.75 22.4141 12.4142 22.7499 12 22.7499C9.81733 22.7499 7.89857 22.3195 6.50293 21.37C5.06968 20.3949 4.25 18.9109 4.25 16.9999C4.25 16.5857 4.58579 16.2499 5 16.2499ZM5.81348 17.7733C5.98899 18.7993 6.52491 19.5707 7.34668 20.1298C8.25471 20.7475 9.55392 21.1306 11.1855 21.2255C11.0098 20.2 10.4748 19.4289 9.65332 18.87C8.7451 18.2521 7.44559 17.8681 5.81348 17.7733Z" fill="#0B0D0E"/>
</svg>
