<svg width="24" height="24" viewBox="0 0 24 24" fill="none" xmlns="http://www.w3.org/2000/svg">
<path d="M3.25 20V4C3.25 3.27066 3.53994 2.57139 4.05566 2.05566C4.57139 1.53994 5.27066 1.25 6 1.25H14V1.25098C14.4151 1.2502 14.8263 1.33056 15.21 1.48926C15.5939 1.64814 15.9429 1.88158 16.2363 2.17578L19.8232 5.7627C20.1179 6.05627 20.3517 6.40573 20.5107 6.79004C20.6694 7.17367 20.7508 7.58485 20.75 8V13.3496C20.75 13.7638 20.4142 14.0996 20 14.0996C19.5858 14.0996 19.25 13.7638 19.25 13.3496V8.75H15C14.5359 8.75 14.0909 8.56549 13.7627 8.2373C13.4345 7.90912 13.25 7.46413 13.25 7V2.75H6C5.66848 2.75 5.35063 2.88179 5.11621 3.11621C4.88179 3.35063 4.75 3.66848 4.75 4V20C4.75 20.3315 4.88179 20.6494 5.11621 20.8838C5.35063 21.1182 5.66848 21.25 6 21.25H11.3496C11.7638 21.25 12.0996 21.5858 12.0996 22C12.0996 22.4142 11.7638 22.75 11.3496 22.75H6C5.27065 22.75 4.57139 22.4601 4.05566 21.9443C3.53994 21.4286 3.25 20.7293 3.25 20ZM16.25 22V19.75H14C13.5858 19.75 13.25 19.4142 13.25 19C13.25 18.5858 13.5858 18.25 14 18.25H16.25V16C16.25 15.5858 16.5858 15.25 17 15.25C17.4142 15.25 17.75 15.5858 17.75 16V18.25H20C20.4142 18.25 20.75 18.5858 20.75 19C20.75 19.4142 20.4142 19.75 20 19.75H17.75V22C17.75 22.4142 17.4142 22.75 17 22.75C16.5858 22.75 16.25 22.4142 16.25 22ZM14.75 7C14.75 7.0663 14.7764 7.12987 14.8232 7.17676C14.8701 7.22364 14.9337 7.25 15 7.25H19.0713C18.9921 7.09336 18.8894 6.94947 18.7646 6.8252L15.1748 3.23535C15.0505 3.11063 14.9066 3.00793 14.75 2.92871V7Z" fill="#0B0D0E"/>
</svg>
