<svg width="24" height="24" viewBox="0 0 24 24" fill="none" xmlns="http://www.w3.org/2000/svg">
<path d="M20.75 9.79981V4.00001C20.75 3.27066 20.4601 2.57139 19.9443 2.05567C19.4286 1.53995 18.7293 1.25001 18 1.25001H10C9.58486 1.24923 9.17367 1.33057 8.79004 1.48926C8.40613 1.64814 8.05706 1.88158 7.76368 2.17579L4.17676 5.7627C3.88213 6.05627 3.6483 6.40573 3.48926 6.79004C3.33057 7.17367 3.24923 7.58486 3.25001 8.00001V20C3.25001 20.7293 3.53995 21.4286 4.05567 21.9443C4.57139 22.4601 5.27066 22.75 6.00001 22.75H10C10.4142 22.75 10.75 22.4142 10.75 22C10.75 21.5858 10.4142 21.25 10 21.25H6.00001C5.66849 21.25 5.35064 21.1182 5.11622 20.8838C4.8818 20.6494 4.75001 20.3315 4.75001 20V7.99805C4.74949 7.78031 4.79177 7.5645 4.87501 7.36329C4.95831 7.16198 5.08103 6.97897 5.23536 6.8252L8.8252 3.23536C8.97897 3.08103 9.16198 2.95831 9.36329 2.87501C9.56449 2.79177 9.78031 2.74949 9.99805 2.75001H18C18.3315 2.75001 18.6494 2.8818 18.8838 3.11622C19.1182 3.35064 19.25 3.66849 19.25 4.00001V9.79981C19.25 10.214 19.5858 10.5498 20 10.5498C20.4142 10.5498 20.75 10.214 20.75 9.79981Z" fill="#0B0D0E"/>
<path d="M10.75 7.00001V2.00001C10.75 1.58579 10.4142 1.25001 10 1.25001C9.58579 1.25001 9.25 1.58579 9.25 2.00001V7.00001C9.25 7.06631 9.22364 7.12988 9.17676 7.17676C9.12987 7.22365 9.0663 7.25001 9 7.25001H4C3.58578 7.25001 3.25001 7.58579 3.25001 8.00001C3.25001 8.41422 3.58578 8.75001 4 8.75001H9C9.46413 8.75001 9.90911 8.5655 10.2373 8.23731C10.5655 7.90912 10.75 7.46414 10.75 7.00001Z" fill="#0B0D0E"/>
<path d="M16.75 17V15C16.75 14.6685 16.8818 14.3506 17.1162 14.1162C17.3506 13.8818 17.6685 13.75 18 13.75C18.3315 13.75 18.6494 13.8818 18.8838 14.1162C19.1182 14.3506 19.25 14.6685 19.25 15V17C19.25 17.4142 19.5858 17.75 20 17.75C20.4142 17.75 20.75 17.4142 20.75 17V15C20.75 14.2707 20.4601 13.5714 19.9443 13.0557C19.4286 12.5399 18.7293 12.25 18 12.25C17.2707 12.25 16.5714 12.5399 16.0557 13.0557C15.5399 13.5714 15.25 14.2707 15.25 15V17C15.25 17.4142 15.5858 17.75 16 17.75C16.4142 17.75 16.75 17.4142 16.75 17Z" fill="#0B0D0E"/>
<path d="M14.75 18C14.75 17.8619 14.8619 17.75 15 17.75H21C21.1381 17.75 21.25 17.8619 21.25 18V21C21.25 21.1381 21.1381 21.25 21 21.25H15C14.8619 21.25 14.75 21.1381 14.75 21V18ZM13.25 21C13.25 21.9665 14.0335 22.75 15 22.75H21C21.9665 22.75 22.75 21.9665 22.75 21V18C22.75 17.0335 21.9665 16.25 21 16.25H15C14.0335 16.25 13.25 17.0335 13.25 18V21Z" fill="#0B0D0E"/>
</svg>
