<svg width="24" height="24" viewBox="0 0 24 24" fill="none" xmlns="http://www.w3.org/2000/svg">
<path d="M3.25 20V4C3.25 3.27066 3.53994 2.57139 4.05566 2.05566C4.57139 1.53994 5.27066 1.25 6 1.25H14V1.25098C14.4151 1.25046 14.8265 1.33136 15.21 1.49023C15.5932 1.6491 15.9414 1.88199 16.2344 2.17578L19.8203 5.76172C20.1154 6.05507 20.3503 6.40474 20.5098 6.78906C20.669 7.17288 20.7505 7.58447 20.75 8V20C20.75 20.7293 20.4601 21.4286 19.9443 21.9443C19.4286 22.4601 18.7293 22.75 18 22.75H6C5.27065 22.75 4.57139 22.4601 4.05566 21.9443C3.53994 21.4286 3.25 20.7293 3.25 20ZM16 16.25C16.4142 16.25 16.75 16.5858 16.75 17C16.75 17.4142 16.4142 17.75 16 17.75H8C7.58579 17.75 7.25 17.4142 7.25 17C7.25 16.5858 7.58579 16.25 8 16.25H16ZM16 12.25C16.4142 12.25 16.75 12.5858 16.75 13C16.75 13.4142 16.4142 13.75 16 13.75H8C7.58579 13.75 7.25 13.4142 7.25 13C7.25 12.5858 7.58579 12.25 8 12.25H16ZM10 8.25C10.4142 8.25 10.75 8.58579 10.75 9C10.75 9.41421 10.4142 9.75 10 9.75H8C7.58579 9.75 7.25 9.41421 7.25 9C7.25 8.58579 7.58579 8.25 8 8.25H10ZM14.75 7C14.75 7.0663 14.7764 7.12987 14.8232 7.17676C14.8701 7.22364 14.9337 7.25 15 7.25H19.0703C18.991 7.0937 18.8883 6.95015 18.7637 6.82617L15.1729 3.23535C15.0491 3.11116 14.9059 3.00878 14.75 2.92969V7ZM4.75 20C4.75 20.3315 4.88179 20.6494 5.11621 20.8838C5.35063 21.1182 5.66848 21.25 6 21.25H18C18.3315 21.25 18.6494 21.1182 18.8838 20.8838C19.1182 20.6494 19.25 20.3315 19.25 20V8.75H15C14.5359 8.75 14.0909 8.56549 13.7627 8.2373C13.4345 7.90912 13.25 7.46413 13.25 7V2.75H6C5.66848 2.75 5.35063 2.88179 5.11621 3.11621C4.88179 3.35063 4.75 3.66848 4.75 4V20Z" fill="#0B0D0E"/>
</svg>
