<svg width="24" height="24" viewBox="0 0 24 24" fill="none" xmlns="http://www.w3.org/2000/svg">
<path d="M13.2621 13.7451C13.3171 13.1563 13.5606 12.5982 13.9603 12.1562L21.184 4.16699C21.216 4.13124 21.2369 4.08648 21.2445 4.03906C21.2521 3.99149 21.2455 3.94248 21.226 3.89844C21.2064 3.85446 21.1745 3.81734 21.1342 3.79102C21.1138 3.77775 21.0918 3.76758 21.0687 3.76074L20.9984 3.75H3.00038C2.95203 3.75002 2.9042 3.76368 2.86366 3.79004C2.82321 3.81638 2.79148 3.85432 2.77187 3.89844C2.75228 3.94253 2.74578 3.99141 2.75331 4.03906C2.76087 4.08648 2.78184 4.13123 2.81386 4.16699L10.0394 12.1562C10.4965 12.6615 10.7501 13.3187 10.7504 14V20C10.7504 20.0465 10.7631 20.0923 10.7875 20.1318C10.8118 20.1712 10.8467 20.2029 10.8881 20.2236L12.8871 21.2236C12.9252 21.2427 12.9686 21.2519 13.0111 21.25C13.0537 21.2481 13.095 21.2353 13.1312 21.2129C13.1675 21.1905 13.1974 21.1593 13.2182 21.1221C13.2389 21.0848 13.2504 21.0426 13.2504 21V14L13.2621 13.7451ZM14.7504 21L14.7357 21.2217C14.7076 21.4423 14.6375 21.6561 14.5287 21.8516C14.3835 22.1122 14.174 22.3323 13.9203 22.4893C13.6668 22.646 13.3773 22.7355 13.0795 22.749C12.7815 22.7625 12.485 22.6987 12.2182 22.5654L10.2172 21.5654C9.92656 21.4201 9.68193 21.1964 9.51113 20.9199C9.36167 20.6779 9.27381 20.4037 9.25429 20.1211L9.25038 20V14C9.25019 13.7292 9.16146 13.4671 9.00038 13.252L8.92714 13.1621L1.70155 5.17285C1.4748 4.92161 1.32513 4.60961 1.27187 4.27539C1.21862 3.9412 1.26337 3.59832 1.40077 3.28906C1.53816 2.97995 1.76273 2.71765 2.04628 2.5332C2.32992 2.34878 2.66109 2.25019 2.99941 2.25H21.0014L21.1283 2.25488C21.4218 2.27686 21.7058 2.37265 21.9535 2.53418C22.2367 2.71893 22.4611 2.98187 22.598 3.29102C22.735 3.60013 22.7793 3.94252 22.726 4.27637C22.6726 4.61024 22.5238 4.92184 22.2973 5.17285L15.0736 13.1621C14.8659 13.3917 14.7506 13.6904 14.7504 14V21Z" fill="#0B0D0E"/>
</svg>
