<svg width="24" height="24" viewBox="0 0 24 24" fill="none" xmlns="http://www.w3.org/2000/svg">
<path d="M3.25 20V4.00001C3.25 3.27066 3.53994 2.57139 4.05566 2.05567C4.57139 1.53995 5.27066 1.25001 6 1.25001H14C14.4151 1.24923 14.8263 1.33057 15.21 1.48926C15.5939 1.64814 15.9429 1.88158 16.2363 2.17579L19.8242 5.7627C20.1186 6.05633 20.3519 6.40582 20.5107 6.79004C20.6693 7.17369 20.7509 7.58491 20.75 8.00001V11.25C20.75 11.6642 20.4142 12 20 12C19.5858 12 19.25 11.6642 19.25 11.25V8.75001H15C14.5359 8.75001 14.0909 8.5655 13.7627 8.23731C13.4345 7.90912 13.25 7.46413 13.25 7.00001V2.75001H6C5.66848 2.75001 5.35063 2.8818 5.11621 3.11622C4.88179 3.35064 4.75 3.66849 4.75 4.00001V20C4.75 20.3315 4.88179 20.6494 5.11621 20.8838C5.35063 21.1182 5.66848 21.25 6 21.25H11.0996C11.5138 21.25 11.8496 21.5858 11.8496 22C11.8496 22.4142 11.5138 22.75 11.0996 22.75H6C5.27065 22.75 4.57139 22.4601 4.05566 21.9443C3.53994 21.4286 3.25 20.7293 3.25 20ZM18.25 17C18.25 15.7574 17.2426 14.75 16 14.75C14.7574 14.75 13.75 15.7574 13.75 17C13.75 18.2426 14.7574 19.25 16 19.25C17.2426 19.25 18.25 18.2426 18.25 17ZM19.75 17C19.75 17.7643 19.5205 18.4746 19.1279 19.0674L21.5303 21.4697C21.8232 21.7626 21.8232 22.2374 21.5303 22.5303C21.2374 22.8232 20.7626 22.8232 20.4697 22.5303L18.0674 20.1279C17.4746 20.5205 16.7643 20.75 16 20.75C13.9289 20.75 12.25 19.0711 12.25 17C12.25 14.9289 13.9289 13.25 16 13.25C18.0711 13.25 19.75 14.9289 19.75 17ZM14.75 7.00001C14.75 7.06631 14.7764 7.12988 14.8232 7.17676C14.8701 7.22365 14.9337 7.25001 15 7.25001H19.0713C18.9922 7.09346 18.8901 6.94947 18.7656 6.8252L15.1748 3.23536C15.0505 3.11063 14.9066 3.00794 14.75 2.92872V7.00001Z" fill="#0B0D0E"/>
</svg>
