<svg width="24" height="24" viewBox="0 0 24 24" fill="none" xmlns="http://www.w3.org/2000/svg">
<path d="M20.75 14C20.75 14.2715 20.6868 14.5393 20.5654 14.7822C20.4439 15.0252 20.2672 15.2374 20.0498 15.4004C18.9545 16.2218 17.6371 16.6889 16.2734 16.7441L16 16.75C14.3356 16.75 12.9581 16.1908 11.7217 15.6963C10.4581 15.1909 9.33552 14.75 8 14.75C6.81756 14.75 5.67357 15.1497 4.75 15.8779V22C4.75 22.4142 4.41421 22.75 4 22.75C3.58579 22.75 3.25 22.4142 3.25 22V4C3.25 3.72847 3.3132 3.46067 3.43457 3.21777C3.55607 2.97478 3.73285 2.76262 3.9502 2.59961C5.11854 1.72346 6.53963 1.25 8 1.25C9.66723 1.25 11.0417 1.80901 12.2119 2.31055C13.4294 2.83234 14.3542 3.25 15.333 3.25C16.5812 3.25 17.4191 2.99778 17.9502 2.59961C18.2101 2.40476 18.5192 2.28602 18.8428 2.25684C19.1663 2.22766 19.4916 2.28937 19.7822 2.43457C20.0729 2.5799 20.3174 2.80366 20.4883 3.08008C20.6591 3.35654 20.75 3.675 20.75 4V14Z" fill="#0B0D0E"/>
</svg>
