<svg width="24" height="24" viewBox="0 0 24 24" fill="none" xmlns="http://www.w3.org/2000/svg">
<path d="M2.25 19V5C2.25 4.27065 2.53994 3.57139 3.05566 3.05566C3.57139 2.53994 4.27065 2.25 5 2.25H15.2109L15.4805 2.26758C16.103 2.33795 16.6853 2.61956 17.1289 3.06934L20.9248 6.86426C21.4429 7.37193 21.7396 8.06379 21.75 8.78906V19C21.75 19.7293 21.4601 20.4286 20.9443 20.9443C20.4286 21.4601 19.7293 21.75 19 21.75H5C4.27065 21.75 3.57139 21.4601 3.05566 20.9443C2.53994 20.4286 2.25 19.7293 2.25 19ZM3.75 19C3.75 19.3315 3.88179 19.6494 4.11621 19.8838C4.35063 20.1182 4.66848 20.25 5 20.25H19C19.3315 20.25 19.6494 20.1182 19.8838 19.8838C20.1182 19.6494 20.25 19.3315 20.25 19V8.81055C20.2453 8.48089 20.1105 8.1663 19.875 7.93555L16.0645 4.125C15.8626 3.91902 15.5966 3.79005 15.3125 3.75781L15.1895 3.75H5C4.66848 3.75 4.35063 3.88179 4.11621 4.11621C3.88179 4.35063 3.75 4.66848 3.75 5V19Z" fill="#0B0D0E"/>
<path d="M16.25 21V14C16.25 13.9337 16.2236 13.8701 16.1768 13.8232C16.1299 13.7764 16.0663 13.75 16 13.75H8C7.9337 13.75 7.87013 13.7764 7.82324 13.8232C7.77636 13.8701 7.75 13.9337 7.75 14V21C7.75 21.4142 7.41421 21.75 7 21.75C6.58579 21.75 6.25 21.4142 6.25 21V14C6.25 13.5359 6.43451 13.0909 6.7627 12.7627C7.09088 12.4345 7.53587 12.25 8 12.25H16C16.4641 12.25 16.9091 12.4345 17.2373 12.7627C17.5655 13.0909 17.75 13.5359 17.75 14V21C17.75 21.4142 17.4142 21.75 17 21.75C16.5858 21.75 16.25 21.4142 16.25 21Z" fill="#0B0D0E"/>
<path d="M7.25 7V3C7.25 2.58579 7.58579 2.25 8 2.25C8.41421 2.25 8.75 2.58579 8.75 3V7C8.75 7.09594 8.78408 7.17125 8.82031 7.21289C8.83746 7.23249 8.85288 7.24209 8.86133 7.24609C8.8693 7.24983 8.87356 7.25 8.875 7.25H12C12.4142 7.25 12.75 7.58579 12.75 8C12.75 8.41421 12.4142 8.75 12 8.75H8.875C8.40925 8.75 7.98603 8.53789 7.69141 8.20117C7.39964 7.86767 7.25 7.43414 7.25 7Z" fill="#0B0D0E"/>
<path d="M16.75 7V3.5C16.75 3.08579 16.4142 2.75 16 2.75C15.5858 2.75 15.25 3.08579 15.25 3.5V7C15.25 7.1188 15.2144 7.20634 15.1846 7.25H11C10.5858 7.25 10.25 7.58579 10.25 8C10.25 8.41421 10.5858 8.75 11 8.75H15.25C15.7287 8.75 16.1262 8.49536 16.3799 8.15723C16.6305 7.82308 16.75 7.40518 16.75 7Z" fill="#0B0D0E"/>
</svg>
