<svg width="24" height="24" viewBox="0 0 24 24" fill="none" xmlns="http://www.w3.org/2000/svg">
<path d="M1.25 18V5C1.25 4.27065 1.53994 3.57139 2.05566 3.05566C2.57139 2.53994 3.27065 2.25 4 2.25H7.92969L8.10059 2.25488C8.4968 2.27955 8.88373 2.39013 9.23438 2.5791C9.63266 2.79375 9.97172 3.10344 10.2217 3.48047L11.0312 4.68066L11.0361 4.6875C11.1511 4.86211 11.3086 5.00525 11.4932 5.10352C11.6776 5.20168 11.8838 5.25205 12.0928 5.25H20C20.7293 5.25 21.4286 5.53994 21.9443 6.05566C22.4601 6.57139 22.75 7.27065 22.75 8V18C22.75 18.7293 22.4601 19.4286 21.9443 19.9443C21.4286 20.4601 20.7293 20.75 20 20.75H4C3.27065 20.75 2.57139 20.4601 2.05566 19.9443C1.53994 19.4286 1.25 18.7293 1.25 18ZM2.75 18C2.75 18.3315 2.88179 18.6494 3.11621 18.8838C3.35063 19.1182 3.66848 19.25 4 19.25H20C20.3315 19.25 20.6494 19.1182 20.8838 18.8838C21.1182 18.6494 21.25 18.3315 21.25 18V8C21.25 7.66848 21.1182 7.35063 20.8838 7.11621C20.6788 6.9112 20.41 6.78436 20.124 6.75586L20 6.75H12.0996V6.74902C11.6425 6.75222 11.1917 6.64257 10.7881 6.42773C10.3821 6.21154 10.0361 5.89684 9.7832 5.5127V5.51172L8.97852 4.31934L8.97363 4.3125C8.85981 4.13967 8.70463 3.99759 8.52246 3.89941C8.38585 3.82583 8.23708 3.77881 8.08398 3.75977L7.92969 3.75H4C3.66848 3.75 3.35063 3.88179 3.11621 4.11621C2.88179 4.35063 2.75 4.66848 2.75 5V18Z" fill="#0B0D0E"/>
</svg>
