<svg width="24" height="24" viewBox="0 0 24 24" fill="none" xmlns="http://www.w3.org/2000/svg">
<path d="M7.25 21V18C7.25 17.6685 7.11821 17.3506 6.88379 17.1162C6.64937 16.8818 6.33152 16.75 6 16.75H3C2.58579 16.75 2.25 16.4142 2.25 16C2.25 15.5858 2.58579 15.25 3 15.25H6L6.27148 15.2637C6.90113 15.3261 7.49301 15.6043 7.94434 16.0557C8.46006 16.5714 8.75 17.2707 8.75 18V21C8.75 21.4142 8.41421 21.75 8 21.75C7.58579 21.75 7.25 21.4142 7.25 21ZM15.25 21V18C15.25 17.2707 15.5399 16.5714 16.0557 16.0557C16.5714 15.5399 17.2707 15.25 18 15.25H21C21.4142 15.25 21.75 15.5858 21.75 16C21.75 16.4142 21.4142 16.75 21 16.75H18C17.6685 16.75 17.3506 16.8818 17.1162 17.1162C16.8818 17.3506 16.75 17.6685 16.75 18V21C16.75 21.4142 16.4142 21.75 16 21.75C15.5858 21.75 15.25 21.4142 15.25 21ZM7.25 6V3C7.25 2.58579 7.58579 2.25 8 2.25C8.41421 2.25 8.75 2.58579 8.75 3V6C8.75 6.72935 8.46006 7.42861 7.94434 7.94434C7.42861 8.46006 6.72935 8.75 6 8.75H3C2.58579 8.75 2.25 8.41421 2.25 8C2.25 7.58579 2.58579 7.25 3 7.25H6L6.12402 7.24414C6.41001 7.21564 6.67878 7.0888 6.88379 6.88379C7.0888 6.67878 7.21564 6.41001 7.24414 6.12402L7.25 6ZM15.25 6V3C15.25 2.58579 15.5858 2.25 16 2.25C16.4142 2.25 16.75 2.58579 16.75 3V6C16.75 6.33152 16.8818 6.64937 17.1162 6.88379C17.3506 7.11821 17.6685 7.25 18 7.25H21C21.4142 7.25 21.75 7.58579 21.75 8C21.75 8.41421 21.4142 8.75 21 8.75H18C17.2707 8.75 16.5714 8.46006 16.0557 7.94434C15.6043 7.49301 15.3261 6.90113 15.2637 6.27148L15.25 6Z" fill="#0B0D0E"/>
</svg>
