<svg width="24" height="24" viewBox="0 0 24 24" fill="none" xmlns="http://www.w3.org/2000/svg">
<path d="M2.75 12C2.75 17.1086 6.89137 21.25 12 21.25C17.1086 21.25 21.25 17.1086 21.25 12C21.25 6.89137 17.1086 2.75 12 2.75C6.89137 2.75 2.75 6.89137 2.75 12ZM1.25 12C1.25 6.06294 6.06294 1.25 12 1.25C17.9371 1.25 22.75 6.06294 22.75 12C22.75 17.9371 17.9371 22.75 12 22.75C6.06294 22.75 1.25 17.9371 1.25 12Z" fill="#0B0D0E"/>
<path d="M8.25 9C8.25 8.25845 8.46993 7.53361 8.88184 6.91699C9.29383 6.30039 9.87938 5.81901 10.5645 5.53516C11.2495 5.25152 12.0042 5.17764 12.7314 5.32226C13.4589 5.46695 14.1269 5.82417 14.6514 6.34863C15.1104 6.80766 15.4418 7.37644 15.6143 7.99902L15.6777 8.26855L15.7217 8.54199C15.8006 9.18309 15.7133 9.83587 15.4648 10.4355C15.181 11.1206 14.6996 11.7062 14.083 12.1182C13.6771 12.3893 13.2236 12.5741 12.75 12.6709V14C12.75 14.4142 12.4142 14.75 12 14.75C11.5858 14.75 11.25 14.4142 11.25 14V12C11.25 11.5858 11.5858 11.25 12 11.25C12.4449 11.25 12.88 11.1183 13.25 10.8711C13.62 10.6239 13.9088 10.2724 14.0791 9.86133L14.1367 9.70508C14.2581 9.33726 14.2829 8.94329 14.207 8.56152L14.168 8.39941C14.0645 8.02591 13.8662 7.68455 13.5908 7.40918C13.2761 7.0945 12.8749 6.87978 12.4385 6.79297C12.0022 6.70629 11.5496 6.75067 11.1387 6.9209C10.7276 7.09122 10.3761 7.38005 10.1289 7.75C9.88174 8.11999 9.75 8.55505 9.75 9C9.75 9.41421 9.41421 9.75 9 9.75C8.58579 9.75 8.25 9.41421 8.25 9Z" fill="#0B0D0E"/>
<path d="M11.9968 16.3121C12.411 16.3121 12.7468 16.6478 12.7468 17.0621C12.7468 17.2215 12.6959 17.3683 12.6111 17.4898C12.6962 17.6114 12.7468 17.7588 12.7468 17.9185C12.7468 18.3327 12.411 18.6685 11.9968 18.6685C11.3464 18.6683 10.8191 18.1404 10.8191 17.4898C10.8193 16.8393 11.3465 16.3123 11.9968 16.3121Z" fill="#0B0D0E"/>
<path d="M13.175 17.4898C13.175 18.1406 12.6475 18.6685 11.9968 18.6685C11.5826 18.6685 11.2473 18.3327 11.2473 17.9185C11.2473 17.7589 11.298 17.6114 11.383 17.4898C11.2983 17.3683 11.2473 17.2214 11.2473 17.0621C11.2473 16.6478 11.5826 16.3121 11.9968 16.3121C12.6473 16.3121 13.1748 16.8392 13.175 17.4898Z" fill="#0B0D0E"/>
</svg>
