<svg width="24" height="24" viewBox="0 0 24 24" fill="none" xmlns="http://www.w3.org/2000/svg">
<path d="M19 21.25C19.4142 21.25 19.75 21.5858 19.75 22C19.75 22.4142 19.4142 22.75 19 22.75H5C4.58579 22.75 4.25 22.4142 4.25 22C4.25 21.5858 4.58579 21.25 5 21.25H19Z" fill="#0B0D0E"/>
<path d="M19 1.25C19.4142 1.25 19.75 1.58579 19.75 2C19.75 2.41421 19.4142 2.75 19 2.75H5C4.58579 2.75 4.25 2.41421 4.25 2C4.25 1.58579 4.58579 1.25 5 1.25H19Z" fill="#0B0D0E"/>
<path d="M16.25 22V17.8281C16.2499 17.5381 16.149 17.2585 15.9668 17.0361L15.8838 16.9443L12 13.0605L8.11621 16.9443C7.88178 17.1787 7.75008 17.4966 7.75 17.8281V22C7.75 22.4142 7.41421 22.75 7 22.75C6.58579 22.75 6.25 22.4142 6.25 22V17.8281C6.25016 17.0989 6.53999 16.3994 7.05566 15.8838L11.4697 11.4697L11.5264 11.418C11.8209 11.1777 12.2557 11.1951 12.5303 11.4697L16.9443 15.8838C17.46 16.3994 17.7498 17.0989 17.75 17.8281V22C17.75 22.4142 17.4142 22.75 17 22.75C16.5858 22.75 16.25 22.4142 16.25 22Z" fill="#0B0D0E"/>
<path d="M6.25 6.17188V2C6.25 1.58579 6.58579 1.25 7 1.25C7.41421 1.25 7.75 1.58579 7.75 2V6.17188L7.75586 6.29492C7.78424 6.58123 7.91096 6.85048 8.11621 7.05566L12 10.9395L15.8838 7.05566L15.9668 6.96387C16.1231 6.77313 16.2198 6.54033 16.2441 6.29492L16.25 6.17188V2C16.25 1.58579 16.5858 1.25 17 1.25C17.4142 1.25 17.75 1.58579 17.75 2V6.17188L17.7363 6.44434C17.6736 7.07359 17.3954 7.66517 16.9443 8.11621L12.5303 12.5303C12.3896 12.6709 12.1989 12.75 12 12.75C11.8011 12.75 11.6104 12.6709 11.4697 12.5303L7.05566 8.11621C6.60456 7.66517 6.32638 7.07359 6.26367 6.44434L6.25 6.17188Z" fill="#0B0D0E"/>
</svg>
