<svg width="24" height="24" viewBox="0 0 24 24" fill="none" xmlns="http://www.w3.org/2000/svg">
<path d="M20.25 15.3105L17.3838 12.4443C17.1494 12.21 16.8314 12.0781 16.5 12.0781C16.21 12.0781 15.9304 12.1792 15.708 12.3613L15.6162 12.4443L7.81055 20.25H19C19.6904 20.25 20.25 19.6904 20.25 19V15.3105ZM10.25 9C10.25 8.30964 9.69036 7.75 9 7.75C8.30964 7.75 7.75 8.30964 7.75 9C7.75 9.69036 8.30964 10.25 9 10.25C9.69036 10.25 10.25 9.69036 10.25 9ZM20.25 5C20.25 4.30964 19.6904 3.75 19 3.75H5C4.30964 3.75 3.75 4.30964 3.75 5V19C3.75 19.6904 4.30964 20.25 5 20.25H5.68945L14.5557 11.3838C15.0714 10.8682 15.7708 10.5781 16.5 10.5781C17.2292 10.5781 17.9286 10.8682 18.4443 11.3838L20.25 13.1895V5ZM11.75 9C11.75 10.5188 10.5188 11.75 9 11.75C7.48122 11.75 6.25 10.5188 6.25 9C6.25 7.48122 7.48122 6.25 9 6.25C10.5188 6.25 11.75 7.48122 11.75 9ZM21.75 19C21.75 20.5188 20.5188 21.75 19 21.75H5C3.48122 21.75 2.25 20.5188 2.25 19V5C2.25 3.48122 3.48122 2.25 5 2.25H19C20.5188 2.25 21.75 3.48122 21.75 5V19Z" fill="#0B0D0E"/>
</svg>
