<svg width="24" height="24" viewBox="0 0 24 24" fill="none" xmlns="http://www.w3.org/2000/svg">
<path d="M12 1.25C17.9371 1.25 22.75 6.06294 22.75 12C22.75 17.9371 17.9371 22.75 12 22.75C6.06294 22.75 1.25 17.9371 1.25 12C1.25 6.06294 6.06294 1.25 12 1.25ZM2.7832 12.75C3.11803 16.9214 6.2176 20.3097 10.25 21.082C8.45966 18.6673 7.41711 15.7689 7.26855 12.75H2.7832ZM16.7314 12.75C16.5829 15.7691 15.5396 18.6672 13.749 21.082C17.7819 20.31 20.8819 16.9217 21.2168 12.75H16.7314ZM8.77051 12.75C8.93365 15.7383 10.0686 18.5914 12 20.876C13.9314 18.5914 15.0664 15.7383 15.2295 12.75H8.77051ZM13.749 2.91699C15.5399 5.33197 16.5829 8.23061 16.7314 11.25H21.2168C20.8819 7.07821 17.782 3.68894 13.749 2.91699ZM12 3.12305C10.0683 5.40772 8.93366 8.26149 8.77051 11.25H15.2295C15.0663 8.26149 13.9317 5.40772 12 3.12305ZM10.25 2.91699C6.21751 3.68929 3.11803 7.07853 2.7832 11.25H7.26855C7.41712 8.23081 8.45937 5.33188 10.25 2.91699Z" fill="#0B0D0E"/>
</svg>
