<svg width="24" height="24" viewBox="0 0 24 24" fill="none" xmlns="http://www.w3.org/2000/svg">
<path d="M1.25 12C1.25 10.475 1.85624 9.0129 2.93457 7.93457C4.0129 6.85624 5.47501 6.25 7 6.25H9C9.41421 6.25 9.75 6.58579 9.75 7C9.75 7.41421 9.41421 7.75 9 7.75H7C5.87283 7.75 4.79215 8.19809 3.99512 8.99512C3.19809 9.79215 2.75 10.8728 2.75 12C2.75 13.1272 3.19809 14.2079 3.99512 15.0049C4.79215 15.8019 5.87283 16.25 7 16.25H9C9.41421 16.25 9.75 16.5858 9.75 17C9.75 17.4142 9.41421 17.75 9 17.75H7C5.47501 17.75 4.0129 17.1438 2.93457 16.0654C1.85624 14.9871 1.25 13.525 1.25 12ZM21.25 12C21.25 10.8728 20.8019 9.79215 20.0049 8.99512C19.2577 8.24794 18.2613 7.80703 17.2109 7.75488L17 7.75H15C14.5858 7.75 14.25 7.41421 14.25 7C14.25 6.58579 14.5858 6.25 15 6.25H17C18.525 6.25 19.9871 6.85624 21.0654 7.93457C22.1438 9.0129 22.75 10.475 22.75 12C22.75 13.525 22.1438 14.9871 21.0654 16.0654C20.0545 17.0764 18.7063 17.6727 17.2852 17.7432L17 17.75H15C14.5858 17.75 14.25 17.4142 14.25 17C14.25 16.5858 14.5858 16.25 15 16.25H17C18.1272 16.25 19.2079 15.8019 20.0049 15.0049C20.8019 14.2079 21.25 13.1272 21.25 12ZM16 11.25C16.4142 11.25 16.75 11.5858 16.75 12C16.75 12.4142 16.4142 12.75 16 12.75H8C7.58579 12.75 7.25 12.4142 7.25 12C7.25 11.5858 7.58579 11.25 8 11.25H16Z" fill="#0B0D0E"/>
</svg>
