<svg width="24" height="24" viewBox="0 0 24 24" fill="none" xmlns="http://www.w3.org/2000/svg">
<path d="M19.25 5C19.25 4.66848 19.1182 4.35063 18.8838 4.11621C18.6788 3.9112 18.41 3.78436 18.124 3.75586L18 3.75H6C5.66848 3.75 5.35063 3.88179 5.11621 4.11621C4.88179 4.35063 4.75 4.66848 4.75 5V19L4.75586 19.124C4.78436 19.41 4.9112 19.6788 5.11621 19.8838C5.35063 20.1182 5.66848 20.25 6 20.25H18C18.3315 20.25 18.6494 20.1182 18.8838 19.8838C19.1182 19.6494 19.25 19.3315 19.25 19V5ZM20.75 19C20.75 19.7293 20.4601 20.4286 19.9443 20.9443C19.4286 21.4601 18.7293 21.75 18 21.75H6C5.27065 21.75 4.57139 21.4601 4.05566 20.9443C3.53994 20.4286 3.25 19.7293 3.25 19V5C3.25 4.27065 3.53994 3.57139 4.05566 3.05566C4.57139 2.53994 5.27065 2.25 6 2.25H18C18.7293 2.25 19.4286 2.53994 19.9443 3.05566C20.4601 3.57139 20.75 4.27065 20.75 5V19Z" fill="#0B0D0E"/>
<path d="M16 7.25C16.4142 7.25 16.75 7.58579 16.75 8C16.75 8.41421 16.4142 8.75 16 8.75H12C11.5858 8.75 11.25 8.41421 11.25 8C11.25 7.58579 11.5858 7.25 12 7.25H16Z" fill="#0B0D0E"/>
<path d="M16 11.25C16.4142 11.25 16.75 11.5858 16.75 12C16.75 12.4142 16.4142 12.75 16 12.75H12C11.5858 12.75 11.25 12.4142 11.25 12C11.25 11.5858 11.5858 11.25 12 11.25H16Z" fill="#0B0D0E"/>
<path d="M16 15.25C16.4142 15.25 16.75 15.5858 16.75 16C16.75 16.4142 16.4142 16.75 16 16.75H12C11.5858 16.75 11.25 16.4142 11.25 16C11.25 15.5858 11.5858 15.25 12 15.25H16Z" fill="#0B0D0E"/>
<path d="M8.00977 7.25C8.42398 7.25 8.75977 7.58579 8.75977 8C8.75977 8.41421 8.42398 8.75 8.00977 8.75H8C7.58579 8.75 7.25 8.41421 7.25 8C7.25 7.58579 7.58579 7.25 8 7.25H8.00977Z" fill="#0B0D0E"/>
<path d="M8.00977 11.25C8.42398 11.25 8.75977 11.5858 8.75977 12C8.75977 12.4142 8.42398 12.75 8.00977 12.75H8C7.58579 12.75 7.25 12.4142 7.25 12C7.25 11.5858 7.58579 11.25 8 11.25H8.00977Z" fill="#0B0D0E"/>
<path d="M8.00977 15.25C8.42398 15.25 8.75977 15.5858 8.75977 16C8.75977 16.4142 8.42398 16.75 8.00977 16.75H8C7.58579 16.75 7.25 16.4142 7.25 16C7.25 15.5858 7.58579 15.25 8 15.25H8.00977Z" fill="#0B0D0E"/>
</svg>
