<svg width="24" height="24" viewBox="0 0 24 24" fill="none" xmlns="http://www.w3.org/2000/svg">
<path d="M3.00977 18.25C3.42398 18.25 3.75977 18.5858 3.75977 19C3.75977 19.4142 3.42398 19.75 3.00977 19.75H3C2.58579 19.75 2.25 19.4142 2.25 19C2.25 18.5858 2.58579 18.25 3 18.25H3.00977ZM21 18.25C21.4142 18.25 21.75 18.5858 21.75 19C21.75 19.4142 21.4142 19.75 21 19.75H8C7.58579 19.75 7.25 19.4142 7.25 19C7.25 18.5858 7.58579 18.25 8 18.25H21ZM3.00977 11.25C3.42398 11.25 3.75977 11.5858 3.75977 12C3.75977 12.4142 3.42398 12.75 3.00977 12.75H3C2.58579 12.75 2.25 12.4142 2.25 12C2.25 11.5858 2.58579 11.25 3 11.25H3.00977ZM21 11.25C21.4142 11.25 21.75 11.5858 21.75 12C21.75 12.4142 21.4142 12.75 21 12.75H8C7.58579 12.75 7.25 12.4142 7.25 12C7.25 11.5858 7.58579 11.25 8 11.25H21ZM3.00977 4.25C3.42398 4.25 3.75977 4.58579 3.75977 5C3.75977 5.41421 3.42398 5.75 3.00977 5.75H3C2.58579 5.75 2.25 5.41421 2.25 5C2.25 4.58579 2.58579 4.25 3 4.25H3.00977ZM21 4.25C21.4142 4.25 21.75 4.58579 21.75 5C21.75 5.41421 21.4142 5.75 21 5.75H8C7.58579 5.75 7.25 5.41421 7.25 5C7.25 4.58579 7.58579 4.25 8 4.25H21Z" fill="#0B0D0E"/>
</svg>
