<svg width="24" height="24" viewBox="0 0 24 24" fill="none" xmlns="http://www.w3.org/2000/svg">
<path d="M19.25 10C19.25 8.07718 18.4866 6.23269 17.127 4.87305C15.8523 3.59835 14.1514 2.84765 12.3594 2.75879L12 2.75C10.0772 2.75 8.23269 3.51341 6.87305 4.87305C5.51341 6.23269 4.75 8.07718 4.75 10C4.75 12.2436 6.00852 14.6266 7.59863 16.7158C9.15216 18.7569 10.9341 20.404 11.8555 21.2021C11.8978 21.2324 11.9479 21.25 12 21.25L12.0791 21.2373C12.1024 21.2296 12.1233 21.2165 12.1436 21.2021C13.0648 20.4042 14.8475 18.7573 16.4014 16.7158C17.9915 14.6266 19.25 12.2436 19.25 10ZM14.25 10C14.25 8.75736 13.2426 7.75 12 7.75C10.7574 7.75 9.75 8.75736 9.75 10C9.75 11.2426 10.7574 12.25 12 12.25C13.2426 12.25 14.25 11.2426 14.25 10ZM15.75 10C15.75 12.0711 14.0711 13.75 12 13.75C9.92893 13.75 8.25 12.0711 8.25 10C8.25 7.92893 9.92893 6.25 12 6.25C14.0711 6.25 15.75 7.92893 15.75 10ZM20.75 10C20.75 12.7494 19.2391 15.4635 17.5947 17.624C15.933 19.8073 14.0397 21.5469 13.0908 22.3662C13.078 22.3772 13.0652 22.3883 13.0518 22.3984C12.7864 22.598 12.4706 22.7174 12.1416 22.7441L12 22.75C11.6206 22.75 11.2515 22.6265 10.9482 22.3984C10.9348 22.3883 10.922 22.3772 10.9092 22.3662C9.9603 21.5469 8.067 19.8073 6.40527 17.624C4.76088 15.4635 3.25 12.7494 3.25 10C3.25 7.67936 4.17156 5.45344 5.8125 3.8125C7.45344 2.17156 9.67936 1.25 12 1.25C14.3206 1.25 16.5466 2.17156 18.1875 3.8125C19.8284 5.45344 20.75 7.67936 20.75 10Z" fill="#0B0D0E"/>
</svg>
