<svg width="24" height="24" viewBox="0 0 24 24" fill="none" xmlns="http://www.w3.org/2000/svg">
<path d="M20.25 4.61792C20.2501 4.57528 20.2395 4.53312 20.2187 4.49585C20.1981 4.45867 20.168 4.42746 20.1318 4.40503C20.0957 4.38264 20.0542 4.36991 20.0117 4.36792C19.9692 4.36598 19.9268 4.37529 19.8887 4.39429L16.2295 6.22339C15.8478 6.41412 15.4267 6.5144 15 6.5144C14.5733 6.5144 14.1522 6.4151 13.7705 6.22437L9.55859 4.11792C9.38512 4.03126 9.19391 3.98608 9 3.98608C8.8545 3.98608 8.71033 4.01101 8.57422 4.0603L8.4414 4.11792L3.88867 6.39526C3.84715 6.41601 3.81152 6.44759 3.78711 6.48706C3.76275 6.5265 3.75002 6.57254 3.75 6.6189V19.3826C3.74989 19.4252 3.76061 19.4674 3.78125 19.5046C3.80195 19.5419 3.8319 19.574 3.86816 19.5964C3.90431 19.6188 3.9458 19.6316 3.98828 19.6335C4.03076 19.6355 4.07326 19.6261 4.11132 19.6072L7.7705 17.7771C8.1522 17.5864 8.5733 17.4871 9 17.4871C9.4267 17.4871 9.84779 17.5864 10.2295 17.7771L14.4414 19.8835L14.5742 19.9402C14.7104 19.9895 14.8544 20.0154 15 20.0154C15.1938 20.0154 15.3852 19.9701 15.5586 19.8835L20.1113 17.6062L20.1689 17.5671C20.1858 17.5517 20.2007 17.534 20.2129 17.5144C20.2373 17.4749 20.25 17.429 20.25 17.3826V4.61792ZM21.75 17.3835C21.7498 17.7084 21.6592 18.0272 21.4883 18.3035C21.3174 18.5797 21.0728 18.8028 20.7822 18.948L16.2295 21.2244C15.8478 21.4151 15.4267 21.5154 15 21.5154C14.5733 21.5154 14.1522 21.4161 13.7705 21.2253L9.55859 19.1189C9.38513 19.0322 9.1939 18.9871 9 18.9871C8.8545 18.9871 8.71033 19.012 8.57422 19.0613L8.4414 19.1189L4.78222 20.949C4.5151 21.0824 4.21822 21.1453 3.91992 21.1316C3.62166 21.1179 3.3319 21.0281 3.07812 20.8708C2.82438 20.7136 2.61464 20.4942 2.46972 20.2332C2.32488 19.9722 2.24934 19.6781 2.25 19.3796V6.61792L2.2539 6.49585C2.27374 6.21357 2.36222 5.93969 2.51172 5.698C2.68261 5.42172 2.92718 5.1987 3.21777 5.05347L7.7705 2.77612L7.91601 2.70874C8.25801 2.56206 8.62676 2.48608 9 2.48608C9.4267 2.48608 9.84779 2.58539 10.2295 2.77612L14.4414 4.88257L14.5742 4.93921C14.7104 4.98854 14.8544 5.0144 15 5.0144C15.1938 5.0144 15.3852 4.96917 15.5586 4.88257L19.2178 3.05249C19.4848 2.91907 19.7819 2.85532 20.0801 2.8689C20.378 2.88254 20.6673 2.9727 20.9209 3.12964C21.1747 3.28678 21.3842 3.50646 21.5293 3.76733C21.6741 4.02783 21.7502 4.32087 21.75 4.6189V17.3835Z" fill="#0B0D0E"/>
<path d="M14.25 20.7639V5.76392C14.25 5.3497 14.5858 5.0144 15 5.0144C15.4142 5.0144 15.75 5.3497 15.75 5.76392V20.7639C15.75 21.1781 15.4142 21.5139 15 21.5139C14.5858 21.5139 14.25 21.1781 14.25 20.7639Z" fill="#0B0D0E"/>
<path d="M8.25 18.2361V3.23608C8.25 2.82187 8.58578 2.48608 9 2.48608C9.41421 2.48608 9.75 2.82187 9.75 3.23608V18.2361C9.75 18.6503 9.41421 18.9871 9 18.9871C8.58578 18.9871 8.25 18.6503 8.25 18.2361Z" fill="#0B0D0E"/>
</svg>
