<svg width="24" height="24" viewBox="0 0 24 24" fill="none" xmlns="http://www.w3.org/2000/svg">
<path d="M13.082 20.6247C13.2892 20.266 13.7487 20.1432 14.1074 20.3503C14.4658 20.5575 14.5886 21.0162 14.3818 21.3747C14.1405 21.7928 13.793 22.1402 13.375 22.3816C12.957 22.6229 12.4827 22.7497 12 22.7497C11.5173 22.7497 11.043 22.6229 10.625 22.3816C10.207 22.1402 9.85954 21.7928 9.61817 21.3747C9.41137 21.0162 9.53417 20.5575 9.89258 20.3503C10.2513 20.1432 10.7109 20.266 10.918 20.6247C11.0277 20.8147 11.185 20.9731 11.375 21.0828C11.565 21.1924 11.7806 21.2497 12 21.2497C12.2194 21.2497 12.435 21.1924 12.625 21.0828C12.815 20.9731 12.9723 20.8147 13.082 20.6247ZM1.46973 1.46947C1.7626 1.17673 2.23742 1.17673 2.53028 1.46947L22.5303 21.4695C22.8231 21.7623 22.8231 22.2371 22.5303 22.53C22.2374 22.8229 21.7626 22.8229 21.4697 22.53L16.6895 17.7497H4.00001C3.66095 17.7498 3.3291 17.6515 3.04493 17.4665C2.76074 17.2815 2.53659 17.0179 2.39942 16.7078C2.26224 16.3976 2.21813 16.0542 2.27247 15.7195C2.32683 15.3848 2.47688 15.0728 2.70508 14.822C2.71046 14.8161 2.71613 14.8102 2.72169 14.8044C3.38709 14.1185 3.99014 13.49 4.4502 12.5163C4.90953 11.5441 5.25001 10.1708 5.25001 7.99974C5.24991 7.48879 5.30836 6.9801 5.42286 6.48314L1.46973 2.53002C1.17696 2.23711 1.17688 1.76232 1.46973 1.46947ZM17.25 7.99974C17.25 7.04924 16.9915 6.11684 16.5029 5.3015C16.0143 4.48609 15.3139 3.81811 14.4756 3.36986C13.6373 2.92164 12.6926 2.70917 11.7432 2.7556C10.794 2.80209 9.87532 3.10586 9.08497 3.63353C8.7405 3.86356 8.27398 3.77097 8.04395 3.4265C7.81404 3.08204 7.90753 2.61646 8.25196 2.38646C9.26823 1.70789 10.4494 1.31731 11.6699 1.25756C12.8906 1.19786 14.1048 1.47131 15.1826 2.0476C16.2604 2.6239 17.1618 3.48167 17.79 4.53002C18.4182 5.57833 18.75 6.77763 18.75 7.99974L18.7588 8.46654C18.8414 10.7592 19.527 12.4352 20.3301 13.6326C20.5605 13.9764 20.4687 14.4419 20.125 14.6726C19.781 14.9033 19.3147 14.8115 19.084 14.4675C18.0667 12.9507 17.25 10.8398 17.25 7.99974ZM6.7461 8.42845C6.70386 10.5273 6.34865 12.0097 5.80665 13.157C5.23406 14.3688 4.47503 15.1509 3.81446 15.8318L3.77442 15.8913C3.76404 15.9129 3.75682 15.9359 3.75294 15.9597C3.74517 16.0075 3.75189 16.057 3.77149 16.1013C3.7911 16.1455 3.82279 16.1833 3.86329 16.2097C3.90387 16.2361 3.9516 16.2498 4.00001 16.2497H15.1895L6.75587 7.81615C6.75374 7.87732 6.74999 7.93847 6.75001 7.99974L6.7461 8.42845Z" fill="#0B0D0E"/>
</svg>
