<svg width="24" height="24" viewBox="0 0 24 24" fill="none" xmlns="http://www.w3.org/2000/svg">
<path d="M15.25 8C15.25 7.30964 14.6904 6.75 14 6.75H4C3.30964 6.75 2.75 7.30964 2.75 8V16C2.75 16.6904 3.30964 17.25 4 17.25H14C14.6904 17.25 15.25 16.6904 15.25 16V8ZM16.75 10.9297V12.5986L21.25 15.5986V8.30469L16.75 10.9297ZM16.75 9.19336L20.8701 6.79004L21.0166 6.7168C21.1678 6.65339 21.331 6.62068 21.4961 6.62012L21.6602 6.62988C21.7685 6.64388 21.8745 6.6723 21.9756 6.71387L22.123 6.78613L22.2598 6.87695C22.3464 6.94326 22.4237 7.02097 22.4902 7.10742L22.582 7.24414L22.6543 7.39062C22.7172 7.54214 22.75 7.705 22.75 7.87012V16.0664L22.7383 16.2344C22.7155 16.4013 22.6594 16.5625 22.5723 16.708C22.456 16.902 22.2892 17.0613 22.0898 17.168C21.8906 17.2746 21.6661 17.3252 21.4404 17.3145C21.2146 17.3037 20.9958 17.2317 20.8076 17.1064H20.8066L16.75 14.4014V16C16.75 17.5188 15.5188 18.75 14 18.75H4C2.48122 18.75 1.25 17.5188 1.25 16V8C1.25 6.48122 2.48122 5.25 4 5.25H14C15.5188 5.25 16.75 6.48122 16.75 8V9.19336Z" fill="#0B0D0E"/>
</svg>
