<svg width="24" height="24" viewBox="0 0 24 24" fill="none" xmlns="http://www.w3.org/2000/svg">
<path d="M2.25 19V8C2.25 7.27065 2.53994 6.57139 3.05566 6.05566C3.57139 5.53994 4.27065 5.25 5 5.25H11C11.4142 5.25 11.75 5.58579 11.75 6C11.75 6.41421 11.4142 6.75 11 6.75H5C4.66848 6.75 4.35063 6.88179 4.11621 7.11621C3.88179 7.35063 3.75 7.66848 3.75 8V19C3.75 19.3315 3.88179 19.6494 4.11621 19.8838C4.35063 20.1182 4.66848 20.25 5 20.25H16C16.3315 20.25 16.6494 20.1182 16.8838 19.8838C17.1182 19.6494 17.25 19.3315 17.25 19V13C17.25 12.5858 17.5858 12.25 18 12.25C18.4142 12.25 18.75 12.5858 18.75 13V19C18.75 19.7293 18.4601 20.4286 17.9443 20.9443C17.4286 21.4601 16.7293 21.75 16 21.75H5C4.27065 21.75 3.57139 21.4601 3.05566 20.9443C2.53994 20.4286 2.25 19.7293 2.25 19ZM21.75 9C21.75 9.41421 21.4142 9.75 21 9.75C20.5858 9.75 20.25 9.41421 20.25 9V4.81055L10.5303 14.5303C10.2374 14.8232 9.76262 14.8232 9.46973 14.5303C9.17683 14.2374 9.17683 13.7626 9.46973 13.4697L19.1895 3.75H15C14.5858 3.75 14.25 3.41421 14.25 3C14.25 2.58579 14.5858 2.25 15 2.25H21C21.4142 2.25 21.75 2.58579 21.75 3V9Z" fill="#0B0D0E"/>
</svg>
