<svg width="24" height="24" viewBox="0 0 24 24" fill="none" xmlns="http://www.w3.org/2000/svg">
<path d="M3.50488 2.25C3.68836 2.25101 3.86933 2.29416 4.03613 2.37402L4.03711 2.37207L22.0371 10.8721C22.1977 10.948 22.3397 11.0573 22.4541 11.1914L22.5586 11.334L22.6426 11.4893C22.7149 11.65 22.7529 11.8253 22.7529 12.0029C22.7528 12.2395 22.6851 12.471 22.5586 12.6709C22.4636 12.8209 22.3385 12.9488 22.1914 13.0459L22.0371 13.1328L4.03711 21.6328L4.03613 21.6309C3.81252 21.7376 3.56266 21.7773 3.31738 21.7412C3.06975 21.7047 2.83855 21.5942 2.6543 21.4248C2.47018 21.2554 2.34125 21.0346 2.28418 20.791C2.22766 20.5496 2.24537 20.2972 2.33301 20.0654L5.17383 12.4385C5.26544 12.1923 5.27678 11.9244 5.20801 11.6729L5.17383 11.5664L2.33105 3.93945L2.33203 3.93848C2.24454 3.7069 2.2268 3.45505 2.2832 3.21387L2.33887 3.03516C2.40799 2.86203 2.51582 2.70625 2.6543 2.5791C2.83902 2.40953 3.07022 2.29878 3.31836 2.2627L3.50488 2.25ZM6.5791 11.043C6.80957 11.6619 6.80956 12.343 6.5791 12.9619L3.95117 20.0137L20.917 12.002L3.95019 3.98926L6.5791 11.043Z" fill="#0B0D0E"/>
<path d="M21.9994 11.2498C22.4136 11.2498 22.7504 11.5855 22.7505 11.9997C22.7506 12.4139 22.4138 12.7498 21.9996 12.7498L6.00256 12.7524C5.58835 12.7525 5.25251 12.4168 5.25244 12.0026C5.25237 11.5884 5.5881 11.2525 6.00232 11.2524L21.9994 11.2498Z" fill="#0B0D0E"/>
</svg>
