<svg width="24" height="24" viewBox="0 0 24 24" fill="none" xmlns="http://www.w3.org/2000/svg">
<path d="M14.25 13C14.25 12.6685 14.1182 12.3506 13.8838 12.1162C13.6494 11.8818 13.3315 11.75 13 11.75H10C9.55878 11.75 9.31781 11.8932 9.2002 12.0498C9.17618 12.0818 9.14894 12.1119 9.12012 12.1396L3.52051 17.54C3.22234 17.8274 2.74745 17.8186 2.45997 17.5205C2.17257 17.2223 2.18137 16.7474 2.4795 16.46L8.04883 11.0889C8.53272 10.4908 9.26618 10.25 10 10.25H13C13.7294 10.25 14.4286 10.5399 14.9443 11.0557C15.4601 11.5714 15.75 12.2707 15.75 13C15.75 13.7293 15.4601 14.4286 14.9443 14.9443C14.4286 15.4601 13.7294 15.75 13 15.75H11C10.5858 15.75 10.25 15.4142 10.25 15C10.25 14.5858 10.5858 14.25 11 14.25H13C13.3315 14.25 13.6494 14.1182 13.8838 13.8838C14.1182 13.6494 14.25 13.3315 14.25 13Z" fill="#0B0D0E"/>
<path d="M20.1025 9.19409C20.8321 9.21471 21.5241 9.52404 22.0254 10.0544C22.5267 10.5849 22.796 11.2936 22.7754 12.0232C22.7547 12.7512 22.4455 13.4402 21.917 13.9412L21.918 13.9421L17.332 18.3269C16.4723 19.2881 15.2701 19.7498 14 19.7498H10C9.55894 19.7498 9.31785 19.893 9.2002 20.0496C9.1689 20.0913 9.13301 20.1304 9.09375 20.1648L7.49414 21.5642C7.18242 21.837 6.70831 21.8056 6.43555 21.4939C6.16281 21.1822 6.19414 20.7081 6.50586 20.4353L8.05762 19.0779C8.54158 18.4879 9.27067 18.2498 10 18.2498H14C14.9147 18.2498 15.697 17.9215 16.2354 17.3064L16.2813 17.2576L20.8818 12.8582L20.8848 12.8552C21.1261 12.6272 21.267 12.3121 21.2764 11.9802C21.2857 11.6484 21.1626 11.326 20.9346 11.0847C20.7066 10.8437 20.3922 10.7035 20.0606 10.6941C19.7287 10.6847 19.4064 10.8069 19.165 11.0349L19.1602 11.0398L14.96 14.9392C14.6564 15.2211 14.1822 15.2037 13.9004 14.9001C13.6187 14.5967 13.6361 14.1224 13.9395 13.8406L18.1397 9.94019C18.6696 9.44161 19.3751 9.17359 20.1025 9.19409Z" fill="#0B0D0E"/>
<path d="M1.46973 15.4697C1.76262 15.1768 2.23738 15.1768 2.53028 15.4697L8.53028 21.4697C8.82317 21.7626 8.82317 22.2374 8.53028 22.5303C8.23738 22.8232 7.76262 22.8232 7.46973 22.5303L1.46973 16.5303C1.17684 16.2374 1.17684 15.7626 1.46973 15.4697Z" fill="#0B0D0E"/>
<path d="M18.1498 9.00049C18.1498 7.81321 17.1876 6.85031 16.0004 6.8501C14.813 6.8501 13.85 7.81308 13.85 9.00049C13.8502 10.1877 14.8131 11.1499 16.0004 11.1499C17.1875 11.1497 18.1496 10.1876 18.1498 9.00049ZM19.6498 9.00049C19.6496 11.016 18.0159 12.6497 16.0004 12.6499C13.9847 12.6499 12.3502 11.0161 12.35 9.00049C12.35 6.98465 13.9845 5.3501 16.0004 5.3501C18.016 5.35031 19.6498 6.98478 19.6498 9.00049Z" fill="#0B0D0E"/>
<path d="M8.25 5C8.25 3.75736 7.24265 2.75 6 2.75C4.75736 2.75 3.75 3.75736 3.75 5C3.75 6.24264 4.75736 7.25 6 7.25C7.24265 7.25 8.25 6.24264 8.25 5ZM9.75 5C9.75 7.07107 8.07107 8.75 6 8.75C3.92894 8.75 2.25 7.07107 2.25 5C2.25 2.92893 3.92894 1.25 6 1.25C8.07107 1.25 9.75 2.92893 9.75 5Z" fill="#0B0D0E"/>
</svg>
