<svg width="24" height="24" viewBox="0 0 24 24" fill="none" xmlns="http://www.w3.org/2000/svg">
<path d="M19.75 12.0269C21.2687 12.0269 22.4998 13.2593 22.5 14.7793V19.9976C22.5 21.5177 21.2688 22.75 19.75 22.75H3.75C2.23122 22.75 1 21.5177 1 19.9976V14.7793C1.00015 13.2593 2.23131 12.0269 3.75 12.0269H19.75ZM3.75 14.011V21.0171H5.15234V18.4875H6.79395C7.0953 18.4875 7.36659 18.4343 7.60645 18.3272C7.8462 18.2135 8.04884 18.0589 8.21484 17.8649C8.38687 17.671 8.51911 17.4372 8.61133 17.1631C8.70358 16.8888 8.75 16.5839 8.75 16.2493C8.74999 15.9214 8.70356 15.6205 8.61133 15.3462C8.5191 15.0652 8.387 14.8277 8.21484 14.6336C8.0489 14.4397 7.8461 14.2891 7.60645 14.1821C7.36659 14.0683 7.0953 14.011 6.79395 14.011H3.75ZM9.75 21.0171H12.0566C12.4601 21.0171 12.8288 20.9433 13.1621 20.7962C13.4953 20.649 13.7789 20.4317 14.0127 20.1442C14.2466 19.8498 14.428 19.4845 14.5566 19.0495C14.6853 18.6079 14.75 18.0962 14.75 17.514C14.75 16.9319 14.6853 16.4233 14.5566 15.9883C14.428 15.5467 14.2466 15.1823 14.0127 14.8946C13.7788 14.6002 13.4954 14.3791 13.1621 14.2319C12.8288 14.0847 12.4601 14.011 12.0566 14.011H9.75V21.0171ZM15.75 21.0171H17.0635V18.1464H19.3525V16.8015H17.0635V15.3657H19.75V14.011H15.75V21.0171ZM12.0566 15.3657C12.4543 15.3657 12.768 15.4936 12.9961 15.7479C13.2238 16.0021 13.3378 16.4101 13.3379 16.9716V18.0565C13.3378 18.618 13.2238 19.026 12.9961 19.2802C12.768 19.5345 12.4543 19.6624 12.0566 19.6624H11.083V15.3657H12.0566ZM6.62793 15.3364C6.83692 15.3364 7.00035 15.3959 7.11719 15.5162C7.24016 15.63 7.30173 15.8009 7.30176 16.0284V16.4702C7.30176 16.6977 7.24018 16.8717 7.11719 16.9921C7.00034 17.1059 6.83703 17.1631 6.62793 17.1631H5.15234V15.3364H6.62793Z" fill="#0B0D0E"/>
<path d="M14.75 20.8196C14.4247 21.2062 14.028 21.5077 13.5654 21.712C13.5355 21.7252 13.5049 21.7368 13.4746 21.7491H14.75V20.8196ZM15.75 14.011V21.0171H17.0635V18.1464H19.3525V16.8015H17.0635V15.3657H19.75V14.011H15.75ZM12.3379 16.9716C12.3379 16.7544 12.3151 16.6073 12.2891 16.5142C12.2762 16.4682 12.2644 16.4406 12.2568 16.4262L12.252 16.4164C12.2382 16.4011 12.2276 16.395 12.2129 16.389C12.1965 16.3824 12.1572 16.371 12.083 16.3685V18.6596C12.1572 18.6571 12.1965 18.6457 12.2129 18.639C12.2276 18.633 12.2382 18.627 12.252 18.6117L12.2568 18.6019C12.2644 18.5874 12.2762 18.5598 12.2891 18.5139C12.3086 18.444 12.3264 18.3437 12.334 18.206L12.3379 18.0565V16.9716ZM12.4346 13.0277C12.827 13.0639 13.2062 13.1575 13.5654 13.3161C14.0306 13.5215 14.4269 13.8271 14.75 14.2172V13.0277H12.4346ZM7.12891 13.0277C7.43395 13.0598 7.73092 13.1376 8.0127 13.2682C8.28492 13.3898 8.53313 13.5507 8.75 13.75V13.0277H7.12891ZM5.15234 21.0171V18.4875H6.79395C7.0953 18.4875 7.36659 18.4343 7.60645 18.3272C7.8462 18.2135 8.04884 18.0589 8.21484 17.8649C8.38687 17.671 8.51911 17.4372 8.61133 17.1631C8.70358 16.8888 8.75 16.5839 8.75 16.2493C8.74999 15.9214 8.70356 15.6205 8.61133 15.3462C8.5191 15.0652 8.387 14.8277 8.21484 14.6336C8.0489 14.4397 7.8461 14.2891 7.60645 14.1821C7.36659 14.0683 7.0953 14.011 6.79395 14.011H3.75V21.0171H5.15234ZM6.15234 21.7491H8.75V18.7475C8.53881 18.9434 8.29986 19.1057 8.03516 19.2313L8.01367 19.2411C7.62716 19.4136 7.2139 19.4884 6.79395 19.4884H6.15234V21.7491ZM12.0566 21.0171C12.4601 21.0171 12.8288 20.9433 13.1621 20.7962C13.4953 20.649 13.7789 20.4317 14.0127 20.1442C14.2466 19.8498 14.428 19.4845 14.5566 19.0495C14.6853 18.6079 14.75 18.0962 14.75 17.514C14.75 16.9319 14.6853 16.4233 14.5566 15.9883C14.428 15.5467 14.2466 15.1823 14.0127 14.8946C13.7788 14.6002 13.4954 14.3791 13.1621 14.2319C12.8288 14.0847 12.4601 14.011 12.0566 14.011H9.75V21.0171H12.0566ZM13.3379 18.0565C13.3378 18.618 13.2238 19.026 12.9961 19.2802C12.768 19.5345 12.4543 19.6624 12.0566 19.6624H11.083V15.3657H12.0566C12.4543 15.3657 12.768 15.4936 12.9961 15.7479C13.2238 16.0021 13.3378 16.4101 13.3379 16.9716V18.0565ZM7.11719 15.5162C7.24016 15.63 7.30173 15.8009 7.30176 16.0284V16.4702C7.30176 16.6977 7.24018 16.8717 7.11719 16.9921C7.00034 17.1059 6.83703 17.1631 6.62793 17.1631H5.15234V15.3364H6.62793C6.83692 15.3364 7.00035 15.3959 7.11719 15.5162ZM2 19.9976C2 20.5925 2.29709 21.1169 2.75 21.4334V13.3425C2.29691 13.659 2.00009 14.1843 2 14.7793V19.9976ZM20.75 16.3666H20.3525V19.1473H18.0635V21.7491H19.75V22.75H3.75C2.23122 22.75 1 21.5177 1 19.9976V14.7793C1.00015 13.2593 2.23131 12.0269 3.75 12.0269H19.75C21.2687 12.0269 22.4998 13.2593 22.5 14.7793V19.9976C22.5 21.5177 21.2688 22.75 19.75 22.75V21.7491C20.7165 21.7491 21.5 20.965 21.5 19.9976V14.7793C21.4999 14.1843 21.2031 13.659 20.75 13.3425V16.3666Z" fill="#0B0D0E"/>
<path d="M4 13.0102V4.09816C4 3.35392 4.28141 2.63287 4.79297 2.09644C5.30572 1.55881 6.0091 1.25 6.75 1.25H13.75C14.1699 1.24947 14.5848 1.33651 14.9707 1.50413C15.3569 1.67189 15.7056 1.91684 15.9971 2.2235C16.0118 2.23902 16.0267 2.25564 16.04 2.27237L18.6318 5.51442L18.6328 5.5154L18.6338 5.51736C18.6338 5.51736 18.6368 5.52081 18.6387 5.52322C18.6424 5.52802 18.6469 5.53541 18.6533 5.54375C18.6662 5.56053 18.6852 5.58405 18.707 5.61314C18.7506 5.67117 18.8098 5.7525 18.874 5.84479C18.9889 6.00989 19.1672 6.27869 19.2637 6.52213C19.4202 6.9177 19.5005 7.34098 19.5 7.76734V8.50626C19.5 8.92083 19.1642 9.25691 18.75 9.25691C18.3358 9.25691 18 8.92083 18 8.50626V7.76637C18.0004 7.52836 17.9555 7.29341 17.8691 7.07534C17.844 7.01186 17.7604 6.87089 17.6436 6.70295C17.5919 6.62877 17.5427 6.56206 17.5068 6.51431C17.4892 6.49086 17.4754 6.47199 17.4658 6.45958C17.4617 6.45418 17.4583 6.44975 17.4561 6.44687L14.8975 3.24587C14.7449 3.08871 14.5672 2.96526 14.374 2.88129C14.1755 2.79506 13.9636 2.75094 13.751 2.7513H6.75C6.43004 2.7513 6.11533 2.88455 5.87793 3.13346C5.6396 3.38354 5.5 3.73027 5.5 4.09816V13.0102C5.5 13.4247 5.16421 13.7608 4.75 13.7608C4.33579 13.7608 4 13.4247 4 13.0102Z" fill="#0B0D0E"/>
<path d="M13 6.50454V2.00065C13 1.58608 13.3358 1.25 13.75 1.25C14.1642 1.25 14.5 1.58608 14.5 2.00065V6.50454C14.5 6.5709 14.5264 6.63452 14.5732 6.68145C14.6201 6.72837 14.6837 6.75475 14.75 6.75475H18.25C18.6642 6.75475 19 7.09083 19 7.5054C19 7.91997 18.6642 8.25605 18.25 8.25605H14.75C14.2859 8.25605 13.8409 8.07138 13.5127 7.74291C13.1845 7.41444 13 6.96907 13 6.50454Z" fill="#0B0D0E"/>
</svg>
