<svg width="24" height="24" viewBox="0 0 24 24" fill="none" xmlns="http://www.w3.org/2000/svg">
<path d="M17.25 15C17.25 14.8619 17.1381 14.75 17 14.75H7C6.86193 14.75 6.75 14.8619 6.75 15V21C6.75 21.1381 6.86193 21.25 7 21.25H17C17.1381 21.25 17.25 21.1381 17.25 21V15ZM18.75 17.25H20C20.3315 17.25 20.6494 17.1182 20.8838 16.8838C21.1182 16.6494 21.25 16.3315 21.25 16V11C21.25 10.6685 21.1182 10.3506 20.8838 10.1162C20.6494 9.88179 20.3315 9.75 20 9.75H4C3.66848 9.75 3.35063 9.88179 3.11621 10.1162C2.88179 10.3506 2.75 10.6685 2.75 11V16C2.75 16.3315 2.88179 16.6494 3.11621 16.8838C3.35063 17.1182 3.66848 17.25 4 17.25H5.25V15C5.25 14.0335 6.0335 13.25 7 13.25H17C17.9665 13.25 18.75 14.0335 18.75 15V17.25ZM17.25 3C17.25 2.93369 17.2236 2.87013 17.1768 2.82324C17.1416 2.78804 17.0969 2.76447 17.0488 2.75488L17 2.75H7C6.9337 2.75 6.87013 2.77636 6.82324 2.82324C6.77636 2.87013 6.75 2.9337 6.75 3V8.25H17.25V3ZM18.75 8.25H20C20.7293 8.25 21.4286 8.53994 21.9443 9.05566C22.4601 9.57139 22.75 10.2707 22.75 11V16C22.75 16.7293 22.4601 17.4286 21.9443 17.9443C21.4286 18.4601 20.7293 18.75 20 18.75H18.75V21C18.75 21.9665 17.9665 22.75 17 22.75H7C6.0335 22.75 5.25 21.9665 5.25 21V18.75H4C3.27065 18.75 2.57139 18.4601 2.05566 17.9443C1.53994 17.4286 1.25 16.7293 1.25 16V11C1.25 10.2707 1.53994 9.57139 2.05566 9.05566C2.57139 8.53994 3.27065 8.25 4 8.25H5.25V3C5.25 2.53587 5.43451 2.09088 5.7627 1.7627C6.09088 1.43451 6.53587 1.25 7 1.25H17C17.4641 1.25 17.9091 1.43451 18.2373 1.7627C18.5655 2.09089 18.75 2.53587 18.75 3V8.25Z" fill="#0B0D0E"/>
</svg>
