<svg width="24" height="24" viewBox="0 0 24 24" fill="none" xmlns="http://www.w3.org/2000/svg">
<path d="M12 2.25C13.9284 2.25 15.8136 2.82221 17.417 3.89355C19.0202 4.96484 20.2699 6.48719 21.0078 8.26855C21.7458 10.0501 21.9387 12.011 21.5625 13.9023C21.1863 15.7936 20.258 17.531 18.8945 18.8945C17.531 20.258 15.7936 21.1863 13.9023 21.5625C12.011 21.9387 10.0501 21.7458 8.26855 21.0078C6.48719 20.2699 4.96484 19.0202 3.89355 17.417C2.82221 15.8136 2.25 13.9284 2.25 12C2.25 11.5858 2.58579 11.25 3 11.25C3.41421 11.25 3.75 11.5858 3.75 12C3.75 13.6316 4.23419 15.2263 5.14062 16.583C6.04714 17.9397 7.33531 18.9976 8.84277 19.6221C10.3502 20.2465 12.0091 20.4101 13.6094 20.0918C15.2097 19.7735 16.6802 18.9878 17.834 17.834C18.9878 16.6802 19.7735 15.2097 20.0918 13.6094C20.4101 12.0091 20.2465 10.3502 19.6221 8.84277C18.9976 7.33531 17.9397 6.04714 16.583 5.14062C15.2266 4.23437 13.6323 3.75019 12.001 3.75C9.67914 3.75921 7.45063 4.66547 5.78125 6.2793L4.81055 7.25H8C8.41421 7.25 8.75 7.58579 8.75 8C8.75 8.41421 8.41421 8.75 8 8.75H3C2.58579 8.75 2.25 8.41421 2.25 8V3C2.25 2.58579 2.58579 2.25 3 2.25C3.41421 2.25 3.75 2.58579 3.75 3V6.18945L4.73828 5.20117C6.68638 3.3179 9.28752 2.26022 11.9971 2.25H12Z" fill="#0B0D0E"/>
</svg>
