<svg width="24" height="24" viewBox="0 0 24 24" fill="none" xmlns="http://www.w3.org/2000/svg">
<path fill-rule="evenodd" clip-rule="evenodd" d="M11.9973 2.25C9.93012 2.25 8.25002 3.92561 8.25002 5.99456C8.25002 6.66564 8.42913 7.30738 8.7503 7.86445C7.71468 8.15198 6.83771 8.94029 6.48831 10.0467C5.97325 11.6777 6.79281 13.4315 8.37438 14.0827L12.8602 15.9298C13.7012 16.2762 14.2501 17.0958 14.2501 18.0053C14.2501 19.2441 13.2434 20.2499 12.0028 20.2499C10.7593 20.2499 9.75013 19.2417 9.75013 17.9999C9.75013 17.5857 9.41434 17.2499 9.00013 17.2499C8.58591 17.2499 8.25013 17.5857 8.25013 17.9999C8.25013 20.0719 9.93267 21.7499 12.0028 21.7499C14.07 21.7499 15.7501 20.0743 15.7501 18.0053C15.7501 17.3343 15.571 16.6925 15.2498 16.1355C16.2854 15.8479 17.1624 15.0596 17.5118 13.9532C18.0269 12.3222 17.2073 10.5684 15.6257 9.91716L11.1399 8.07006C10.2989 7.72375 9.75002 6.90411 9.75002 5.99456C9.75002 4.75581 10.7568 3.75 11.9973 3.75C13.2408 3.75 14.25 4.75824 14.25 6C14.25 6.41421 14.5858 6.75 15 6.75C15.4142 6.75 15.75 6.41421 15.75 6C15.75 3.92805 14.0675 2.25 11.9973 2.25ZM13.1966 14.4462C13.2158 14.4514 13.235 14.4575 13.254 14.4643L13.765 14.6483C14.7227 14.993 15.7749 14.4721 16.0814 13.5015C16.3619 12.6135 15.9157 11.6587 15.0546 11.3042L10.8035 9.55372C10.7843 9.54848 10.7651 9.54243 10.7461 9.53557L10.2352 9.35164C9.27747 9.00686 8.2252 9.52779 7.91868 10.4984C7.63827 11.3864 8.08446 12.3412 8.94551 12.6957L13.1966 14.4462Z" fill="#0B0D0E"/>
</svg>
