<svg width="24" height="24" viewBox="0 0 24 24" fill="none" xmlns="http://www.w3.org/2000/svg">
<path d="M12.1777 1.2627C12.2949 1.27914 12.4094 1.31153 12.5176 1.35938L12.6748 1.44238L12.8193 1.54688C12.9102 1.62264 12.9899 1.71087 13.0566 1.80859L13.1475 1.96191L15.457 6.6416C15.5554 6.84074 15.7012 7.0129 15.8809 7.14355C16.0603 7.27407 16.2687 7.35927 16.4883 7.3916L21.6543 8.14746C21.8314 8.17313 21.9999 8.23563 22.1504 8.33008L22.2949 8.43555L22.4229 8.55957C22.502 8.64782 22.5682 8.74696 22.6201 8.85352L22.6875 9.01855L22.7305 9.19141C22.7614 9.36646 22.7557 9.54682 22.7129 9.7207C22.67 9.89467 22.5913 10.0576 22.4824 10.1982L22.3633 10.3311L18.627 13.9688C18.4677 14.1239 18.3491 14.3159 18.2803 14.5273C18.2115 14.7386 18.1952 14.9636 18.2324 15.1826L19.1143 20.3232C19.1551 20.5583 19.1294 20.8002 19.04 21.0215C18.9502 21.2439 18.7996 21.4371 18.6055 21.5781C18.4113 21.7191 18.1807 21.8027 17.9414 21.8193C17.7022 21.8359 17.4626 21.7846 17.251 21.6719L12.6367 19.2461C12.4401 19.1429 12.2211 19.0889 11.999 19.0889C11.777 19.0889 11.5579 19.142 11.3613 19.2451L11.3623 19.2461L6.74609 21.6719C6.53443 21.7839 6.2955 21.8353 6.05664 21.8184C5.8179 21.8013 5.58811 21.7179 5.39453 21.5771C5.20092 21.4363 5.0507 21.2435 4.96094 21.0215C4.89361 20.8549 4.86211 20.6763 4.86816 20.498L4.88672 20.3203L5.76758 15.1846C5.80519 14.9653 5.78847 14.7399 5.71973 14.5283C5.6509 14.3167 5.53248 14.124 5.37305 13.9688L1.63672 10.332L1.6377 10.3311C1.46648 10.1649 1.34392 9.95518 1.28613 9.72363C1.22811 9.49103 1.23656 9.24658 1.31055 9.01855C1.38454 8.79055 1.52156 8.5878 1.70508 8.43359C1.88776 8.28019 2.10963 8.18048 2.3457 8.14648L7.51074 7.3916C7.7307 7.3596 7.94027 7.27514 8.12012 7.14453C8.2999 7.01392 8.44452 6.84082 8.54297 6.6416L10.8525 1.96289C10.9584 1.74917 11.1226 1.56819 11.3252 1.44238L11.4824 1.35938C11.6448 1.28761 11.8212 1.25002 12 1.25L12.1777 1.2627ZM11.999 17.5889C12.4641 17.5889 12.9232 17.7018 13.335 17.918L17.5605 20.1387L16.7539 15.4365C16.6755 14.9776 16.7095 14.5062 16.8535 14.0635C16.9975 13.6208 17.2467 13.2194 17.5801 12.8945L20.9971 9.56738L16.2715 8.87598C15.8117 8.8084 15.3739 8.62976 14.998 8.35645C14.6223 8.08307 14.3181 7.72224 14.1123 7.30566L12 3.02637L11.999 17.5889Z" fill="#0B0D0E"/>
</svg>
