<svg width="24" height="24" viewBox="0 0 24 24" fill="none" xmlns="http://www.w3.org/2000/svg">
<path d="M20.25 12C20.25 9.81196 19.3812 7.71319 17.834 6.16602C16.287 4.61907 14.1887 3.75026 12.001 3.75C9.67914 3.75921 7.45063 4.66547 5.78125 6.2793L4.81055 7.25H8C8.41421 7.25 8.75 7.58579 8.75 8C8.75 8.41421 8.41421 8.75 8 8.75H3C2.58579 8.75 2.25 8.41421 2.25 8V3C2.25 2.58579 2.58579 2.25 3 2.25C3.41421 2.25 3.75 2.58579 3.75 3V6.18945L4.73828 5.20117C6.68638 3.3179 9.28752 2.26022 11.9971 2.25H12C14.5859 2.25 17.0661 3.27699 18.8945 5.10547C20.723 6.93395 21.75 9.41414 21.75 12C21.75 12.4142 21.4142 12.75 21 12.75C20.5858 12.75 20.25 12.4142 20.25 12ZM21.75 21C21.75 21.4142 21.4142 21.75 21 21.75C20.5858 21.75 20.25 21.4142 20.25 21V17.8105L19.2617 18.7988C17.3136 20.6821 14.7125 21.7398 12.0029 21.75H12C9.41414 21.75 6.93395 20.723 5.10547 18.8945C3.27699 17.0661 2.25 14.5859 2.25 12C2.25 11.5858 2.58579 11.25 3 11.25C3.41421 11.25 3.75 11.5858 3.75 12C3.75 14.188 4.61884 16.2868 6.16602 17.834C7.71273 19.3807 9.81072 20.2485 11.998 20.249C14.3202 20.2401 16.5491 19.3348 18.2188 17.7207L19.1895 16.75H16C15.5858 16.75 15.25 16.4142 15.25 16C15.25 15.5858 15.5858 15.25 16 15.25H21C21.4142 15.25 21.75 15.5858 21.75 16V21Z" fill="#0B0D0E"/>
</svg>
