<svg width="24" height="24" viewBox="0 0 24 24" fill="none" xmlns="http://www.w3.org/2000/svg">
<path d="M21.2501 4C21.2501 3.6685 21.1183 3.35063 20.8839 3.11621C20.6495 2.88181 20.3316 2.75002 20.0001 2.75H17.7501V13.25H20.0001C20.3316 13.25 20.6495 13.1182 20.8839 12.8838C21.1183 12.6494 21.2501 12.3315 21.2501 12V4ZM6.50013 2.75C6.22968 2.75 5.96649 2.83775 5.75013 3C5.53375 3.16228 5.37566 3.39075 5.29993 3.65039L2.96985 11.6494C2.91562 11.8356 2.90587 12.0328 2.94056 12.2236C2.97528 12.4145 3.05363 12.5948 3.17005 12.75C3.28648 12.9052 3.43788 13.0314 3.61145 13.1182C3.78492 13.2048 3.97614 13.25 4.17005 13.25H10.0001C10.2301 13.25 10.4478 13.3553 10.59 13.5361C10.7321 13.7169 10.7829 13.9532 10.7286 14.1768L9.72864 18.2969V18.2998C9.64268 18.648 9.63601 19.0114 9.71009 19.3623C9.78419 19.713 9.93711 20.0426 10.1564 20.3262C10.3756 20.6097 10.656 20.8401 10.9767 21C11.1622 21.0925 11.3589 21.1588 11.5607 21.2002L14.7794 14.7744C15.0071 14.3171 15.3579 13.9323 15.7921 13.6631C15.938 13.5726 16.0914 13.4969 16.2501 13.4355V2.75H6.50013ZM22.7501 12C22.7501 12.7293 22.4602 13.4286 21.9445 13.9443C21.4288 14.46 20.7294 14.75 20.0001 14.75H17.2404C17.0078 14.7501 16.7798 14.815 16.5822 14.9375C16.3846 15.06 16.2247 15.2352 16.1212 15.4434L12.671 22.3359C12.5424 22.5928 12.2776 22.7536 11.9904 22.75C11.406 22.7427 10.8308 22.6035 10.3077 22.3428C9.78454 22.0819 9.32648 21.7057 8.96888 21.2432C8.61149 20.7808 8.36305 20.2437 8.24231 19.6719C8.13665 19.1714 8.13158 18.6556 8.22571 18.1543L8.27161 17.9404L9.047 14.75H4.17005C3.74327 14.75 3.3223 14.6508 2.94056 14.46C2.55876 14.2691 2.22599 13.9919 1.96985 13.6504C1.71373 13.3089 1.54038 12.9122 1.46399 12.4922C1.38764 12.0723 1.41095 11.6402 1.5304 11.2305L3.86048 3.23047C4.02707 2.65929 4.37378 2.15681 4.84973 1.7998C5.32575 1.44279 5.90511 1.25 6.50013 1.25H20.0001C20.7294 1.25002 21.4288 1.53996 21.9445 2.05566C22.4602 2.57139 22.7501 3.27067 22.7501 4V12Z" fill="#0B0D0E"/>
</svg>
