<svg width="24" height="24" viewBox="0 0 24 24" fill="none" xmlns="http://www.w3.org/2000/svg">
<path d="M2.25 19.0001V15.0001C2.25 14.5859 2.58579 14.2501 3 14.2501C3.41421 14.2501 3.75 14.5859 3.75 15.0001V19.0001C3.75 19.3316 3.88179 19.6495 4.11621 19.8839C4.35063 20.1183 4.66848 20.2501 5 20.2501H19C19.3315 20.2501 19.6494 20.1183 19.8838 19.8839C20.1182 19.6495 20.25 19.3316 20.25 19.0001V15.0001C20.25 14.5859 20.5858 14.2501 21 14.2501C21.4142 14.2501 21.75 14.5859 21.75 15.0001V19.0001C21.75 19.7295 21.4601 20.4287 20.9443 20.9445C20.4286 21.4602 19.7293 21.7501 19 21.7501H5C4.27065 21.7501 3.57139 21.4602 3.05566 20.9445C2.53994 20.4287 2.25 19.7295 2.25 19.0001ZM11.25 15.0001V4.81066L7.53027 8.53039C7.23738 8.82328 6.76262 8.82328 6.46973 8.53039C6.17683 8.2375 6.17683 7.76274 6.46973 7.46984L11.4697 2.46984L11.5264 2.41809C11.8209 2.17778 12.2557 2.19524 12.5303 2.46984L17.5303 7.46984C17.8232 7.76274 17.8232 8.2375 17.5303 8.53039C17.2374 8.82328 16.7626 8.82328 16.4697 8.53039L12.75 4.81066V15.0001C12.75 15.4143 12.4142 15.7501 12 15.7501C11.5858 15.7501 11.25 15.4143 11.25 15.0001Z" fill="#0B0D0E"/>
</svg>
