<svg width="24" height="24" viewBox="0 0 24 24" fill="none" xmlns="http://www.w3.org/2000/svg">
<path fill-rule="evenodd" clip-rule="evenodd" d="M12.0001 8.25C14.0711 8.25003 15.7501 9.92895 15.7501 12C15.7501 14.071 14.0711 15.75 12.0001 15.75C9.929 15.75 8.25007 14.0711 8.25007 12C8.25007 9.92893 9.929 8.25 12.0001 8.25ZM12.0001 9.75C10.7574 9.75 9.75007 10.7574 9.75007 12C9.75007 13.2426 10.7574 14.25 12.0001 14.25C13.2427 14.25 14.2501 13.2426 14.2501 12C14.2501 10.7574 13.2427 9.75003 12.0001 9.75Z" fill="#0B0D0E"/>
<path fill-rule="evenodd" clip-rule="evenodd" d="M12.0001 4.25098C14.2773 4.25107 16.5031 4.92777 18.3956 6.19434C20.2882 7.46106 21.7626 9.26083 22.6309 11.3662C22.6343 11.3744 22.6376 11.3833 22.6407 11.3916C22.7864 11.7844 22.7865 12.2166 22.6407 12.6094C22.6376 12.6176 22.6343 12.6267 22.6309 12.6348C21.7625 14.7399 20.288 16.5401 18.3956 17.8066C16.5032 19.073 14.2771 19.7499 12.0001 19.75C9.72281 19.7499 7.49611 19.0732 5.60358 17.8066C3.71112 16.54 2.23657 14.7399 1.36823 12.6348C1.36485 12.6266 1.36155 12.6177 1.35847 12.6094C1.2127 12.2167 1.21287 11.7843 1.35847 11.3916L1.36823 11.3662C2.2365 9.261 3.71116 7.46104 5.60358 6.19434C7.49614 4.9277 9.72276 4.25106 12.0001 4.25098ZM12.0001 5.75098C10.0198 5.75106 8.08325 6.33902 6.43757 7.44043C4.7974 8.5383 3.51776 10.0971 2.76179 11.9199C2.74424 11.972 2.74499 12.029 2.76276 12.0811C3.51882 13.9037 4.79746 15.4628 6.43757 16.5605C8.08322 17.6619 10.0199 18.2499 12.0001 18.25C13.9801 18.2499 15.916 17.6617 17.5616 16.5605C19.2016 15.4629 20.4793 13.9035 21.2354 12.0811C21.2534 12.0287 21.2542 11.9723 21.2364 11.9199C20.4803 10.097 19.2019 8.53825 17.5616 7.44043C15.916 6.33909 13.9802 5.75107 12.0001 5.75098Z" fill="#0B0D0E"/>
</svg>
