<svg width="24" height="24" viewBox="0 0 24 24" fill="none" xmlns="http://www.w3.org/2000/svg">
<path fill-rule="evenodd" clip-rule="evenodd" d="M1.4698 1.46979C1.76269 1.1769 2.23745 1.1769 2.53035 1.46979L22.5303 21.4698C22.8232 21.7627 22.8232 22.2375 22.5303 22.5303C22.2375 22.8232 21.7627 22.8232 21.4698 22.5303L17.3624 18.4229C16.0752 19.1013 14.6691 19.53 13.2188 19.6846C11.5789 19.8593 9.91974 19.6799 8.35554 19.1573C6.79137 18.6346 5.35791 17.7808 4.15242 16.6553C2.94699 15.5299 1.99694 14.1585 1.36824 12.6339C1.36488 12.6257 1.36153 12.6167 1.35847 12.6085C1.21287 12.2157 1.2127 11.7834 1.35847 11.3907L1.36824 11.3663C2.19498 9.36138 3.56877 7.63626 5.32429 6.38483L1.4698 2.53034C1.17691 2.23745 1.17691 1.76269 1.4698 1.46979ZM6.40339 7.46393C4.78345 8.55807 3.51492 10.1049 2.76277 11.918C2.74485 11.9698 2.74471 12.0262 2.76179 12.0782C3.30852 13.3974 4.13195 14.585 5.17585 15.5596C6.22404 16.5382 7.47111 17.28 8.83113 17.7344C10.1912 18.1888 11.6337 18.3453 13.0596 18.1934C14.1648 18.0756 15.2398 17.7724 16.2423 17.3028L14.0675 15.128C13.4492 15.5366 12.7191 15.7565 11.9678 15.7501C10.9847 15.7415 10.044 15.3466 9.3487 14.6514C8.65359 13.9563 8.25875 13.0163 8.25007 12.0333C8.24354 11.2817 8.46236 10.5503 8.87117 9.93171L6.40339 7.46393ZM9.97077 11.0313C9.82458 11.3371 9.7471 11.6744 9.75007 12.0196C9.75521 12.6095 9.99214 13.1737 10.4093 13.5909C10.8264 14.008 11.3907 14.2449 11.9805 14.2501C12.3253 14.253 12.6612 14.1732 12.9669 14.0274L9.97077 11.0313Z" fill="#0B0D0E"/>
<path d="M10.6446 4.33112C13.1364 4.03428 15.658 4.5611 17.8223 5.83112C19.8513 7.0219 21.4631 8.80466 22.4444 10.9346L22.6319 11.3653L22.6417 11.3897C22.7874 11.7824 22.7873 12.2148 22.6417 12.6075C22.6386 12.6157 22.6352 12.6248 22.6319 12.6329C22.2389 13.5857 21.7187 14.4816 21.087 15.296C20.8331 15.6232 20.3615 15.6826 20.0343 15.4288C19.7075 15.1749 19.648 14.7041 19.9014 14.377C20.4469 13.6739 20.8965 12.9002 21.2374 12.0782C21.2546 12.0266 21.2547 11.9706 21.2374 11.919C20.4047 9.90936 18.939 8.22522 17.0626 7.12409C15.1808 6.01998 12.9888 5.56234 10.8223 5.82038C10.411 5.86939 10.0374 5.57543 9.98835 5.16413C9.9397 4.75311 10.2336 4.38018 10.6446 4.33112Z" fill="#0B0D0E"/>
</svg>
