<svg width="345" height="311" viewBox="0 0 345 311" fill="none" xmlns="http://www.w3.org/2000/svg">
<path d="M47.6 193.76H54.16C58.2133 193.76 61.2933 194.88 63.4 197.12C65.5067 199.36 66.56 202.573 66.56 206.76C66.56 208.84 66.2933 210.707 65.76 212.36C65.2267 213.987 64.44 215.373 63.4 216.52C62.36 217.64 61.08 218.507 59.56 219.12C58.04 219.707 56.2933 220 54.32 220H47.6V193.76ZM53.92 217.28C56.9867 217.28 59.28 216.36 60.8 214.52C62.3467 212.68 63.12 210.093 63.12 206.76C63.12 203.427 62.3467 200.88 60.8 199.12C59.28 197.36 56.9867 196.48 53.92 196.48H50.92V217.28H53.92ZM81.8894 220.48C80.236 220.48 78.716 220.16 77.3294 219.52C75.9694 218.88 74.796 217.973 73.8094 216.8C72.8227 215.6 72.0494 214.16 71.4894 212.48C70.956 210.773 70.6894 208.867 70.6894 206.76C70.6894 204.653 70.956 202.773 71.4894 201.12C72.0494 199.44 72.8227 198.027 73.8094 196.88C74.796 195.707 75.9694 194.813 77.3294 194.2C78.716 193.587 80.236 193.28 81.8894 193.28C83.5427 193.28 85.0494 193.6 86.4094 194.24C87.796 194.853 88.9827 195.747 89.9694 196.92C90.9827 198.067 91.756 199.48 92.2894 201.16C92.8494 202.813 93.1294 204.68 93.1294 206.76C93.1294 208.867 92.8494 210.773 92.2894 212.48C91.756 214.16 90.9827 215.6 89.9694 216.8C88.9827 217.973 87.796 218.88 86.4094 219.52C85.0494 220.16 83.5427 220.48 81.8894 220.48ZM81.8894 217.56C83.0627 217.56 84.116 217.307 85.0494 216.8C86.0094 216.293 86.8227 215.573 87.4894 214.64C88.1827 213.68 88.716 212.547 89.0894 211.24C89.4627 209.907 89.6494 208.413 89.6494 206.76C89.6494 205.133 89.4627 203.667 89.0894 202.36C88.716 201.053 88.1827 199.947 87.4894 199.04C86.8227 198.133 86.0094 197.44 85.0494 196.96C84.116 196.453 83.0627 196.2 81.8894 196.2C80.716 196.2 79.6494 196.453 78.6894 196.96C77.756 197.44 76.9427 198.133 76.2494 199.04C75.5827 199.947 75.0627 201.053 74.6894 202.36C74.316 203.667 74.1294 205.133 74.1294 206.76C74.1294 208.413 74.316 209.907 74.6894 211.24C75.0627 212.547 75.5827 213.68 76.2494 214.64C76.9427 215.573 77.756 216.293 78.6894 216.8C79.6494 217.307 80.716 217.56 81.8894 217.56ZM98.7719 193.76H102.692L107.772 207.84L109.692 213.2H109.852L111.692 207.84L116.732 193.76H120.652V220H117.492V205.56C117.492 204.387 117.532 203.093 117.612 201.68C117.719 200.267 117.825 198.973 117.932 197.8H117.772L115.652 203.64L110.612 217.36H108.732L103.652 203.64L101.572 197.8H101.412C101.492 198.973 101.585 200.267 101.692 201.68C101.799 203.093 101.852 204.387 101.852 205.56V220H98.7719V193.76ZM127.914 214.28C128.848 215.267 129.941 216.067 131.194 216.68C132.474 217.267 133.794 217.56 135.154 217.56C136.888 217.56 138.234 217.173 139.194 216.4C140.154 215.6 140.634 214.56 140.634 213.28C140.634 212.613 140.514 212.053 140.274 211.6C140.061 211.12 139.754 210.72 139.354 210.4C138.981 210.053 138.528 209.747 137.994 209.48C137.461 209.213 136.888 208.933 136.274 208.64L132.514 207C131.901 206.733 131.274 206.413 130.634 206.04C129.994 205.667 129.421 205.213 128.914 204.68C128.408 204.147 127.994 203.52 127.674 202.8C127.354 202.053 127.194 201.2 127.194 200.24C127.194 199.253 127.394 198.333 127.794 197.48C128.221 196.627 128.794 195.893 129.514 195.28C130.261 194.64 131.128 194.147 132.114 193.8C133.128 193.453 134.234 193.28 135.434 193.28C137.008 193.28 138.461 193.587 139.794 194.2C141.128 194.787 142.261 195.56 143.194 196.52L141.394 198.68C140.594 197.907 139.701 197.307 138.714 196.88C137.754 196.427 136.661 196.2 135.434 196.2C133.968 196.2 132.781 196.547 131.874 197.24C130.994 197.907 130.554 198.84 130.554 200.04C130.554 200.68 130.674 201.227 130.914 201.68C131.181 202.107 131.528 202.493 131.954 202.84C132.381 203.16 132.848 203.453 133.354 203.72C133.861 203.96 134.381 204.187 134.914 204.4L138.634 206C139.381 206.32 140.088 206.693 140.754 207.12C141.421 207.52 141.994 208 142.474 208.56C142.954 209.093 143.328 209.733 143.594 210.48C143.888 211.2 144.034 212.04 144.034 213C144.034 214.04 143.821 215.013 143.394 215.92C142.994 216.827 142.408 217.627 141.634 218.32C140.861 218.987 139.928 219.52 138.834 219.92C137.741 220.293 136.501 220.48 135.114 220.48C133.274 220.48 131.568 220.133 129.994 219.44C128.421 218.747 127.061 217.8 125.914 216.6L127.914 214.28ZM153.86 196.56H145.94V193.76H165.14V196.56H157.22V220H153.86V196.56ZM178.569 220.48C176.916 220.48 175.396 220.16 174.009 219.52C172.649 218.88 171.476 217.973 170.489 216.8C169.502 215.6 168.729 214.16 168.169 212.48C167.636 210.773 167.369 208.867 167.369 206.76C167.369 204.653 167.636 202.773 168.169 201.12C168.729 199.44 169.502 198.027 170.489 196.88C171.476 195.707 172.649 194.813 174.009 194.2C175.396 193.587 176.916 193.28 178.569 193.28C180.222 193.28 181.729 193.6 183.089 194.24C184.476 194.853 185.662 195.747 186.649 196.92C187.662 198.067 188.436 199.48 188.969 201.16C189.529 202.813 189.809 204.68 189.809 206.76C189.809 208.867 189.529 210.773 188.969 212.48C188.436 214.16 187.662 215.6 186.649 216.8C185.662 217.973 184.476 218.88 183.089 219.52C181.729 220.16 180.222 220.48 178.569 220.48ZM178.569 217.56C179.742 217.56 180.796 217.307 181.729 216.8C182.689 216.293 183.502 215.573 184.169 214.64C184.862 213.68 185.396 212.547 185.769 211.24C186.142 209.907 186.329 208.413 186.329 206.76C186.329 205.133 186.142 203.667 185.769 202.36C185.396 201.053 184.862 199.947 184.169 199.04C183.502 198.133 182.689 197.44 181.729 196.96C180.796 196.453 179.742 196.2 178.569 196.2C177.396 196.2 176.329 196.453 175.369 196.96C174.436 197.44 173.622 198.133 172.929 199.04C172.262 199.947 171.742 201.053 171.369 202.36C170.996 203.667 170.809 205.133 170.809 206.76C170.809 208.413 170.996 209.907 171.369 211.24C171.742 212.547 172.262 213.68 172.929 214.64C173.622 215.573 174.436 216.293 175.369 216.8C176.329 217.307 177.396 217.56 178.569 217.56ZM195.452 193.76H198.772V217.16H210.252V220H195.452V193.76ZM214.905 193.76H230.025V196.56H218.225V204.8H228.185V207.64H218.225V217.16H230.425V220H214.905V193.76ZM235.998 193.76H239.438L248.918 210.24L251.758 215.68H251.918C251.838 214.347 251.745 212.973 251.638 211.56C251.558 210.12 251.518 208.707 251.518 207.32V193.76H254.678V220H251.238L241.718 203.48L238.878 198.08H238.718C238.825 199.413 238.918 200.773 238.998 202.16C239.105 203.52 239.158 204.893 239.158 206.28V220H235.998V193.76ZM261.897 193.76H277.017V196.56H265.217V204.8H275.177V207.64H265.217V217.16H277.417V220H261.897V193.76ZM283.071 214.28C284.004 215.267 285.097 216.067 286.351 216.68C287.631 217.267 288.951 217.56 290.311 217.56C292.044 217.56 293.391 217.173 294.351 216.4C295.311 215.6 295.791 214.56 295.791 213.28C295.791 212.613 295.671 212.053 295.431 211.6C295.217 211.12 294.911 210.72 294.511 210.4C294.137 210.053 293.684 209.747 293.151 209.48C292.617 209.213 292.044 208.933 291.431 208.64L287.671 207C287.057 206.733 286.431 206.413 285.791 206.04C285.151 205.667 284.577 205.213 284.071 204.68C283.564 204.147 283.151 203.52 282.831 202.8C282.511 202.053 282.351 201.2 282.351 200.24C282.351 199.253 282.551 198.333 282.951 197.48C283.377 196.627 283.951 195.893 284.671 195.28C285.417 194.64 286.284 194.147 287.271 193.8C288.284 193.453 289.391 193.28 290.591 193.28C292.164 193.28 293.617 193.587 294.951 194.2C296.284 194.787 297.417 195.56 298.351 196.52L296.551 198.68C295.751 197.907 294.857 197.307 293.871 196.88C292.911 196.427 291.817 196.2 290.591 196.2C289.124 196.2 287.937 196.547 287.031 197.24C286.151 197.907 285.711 198.84 285.711 200.04C285.711 200.68 285.831 201.227 286.071 201.68C286.337 202.107 286.684 202.493 287.111 202.84C287.537 203.16 288.004 203.453 288.511 203.72C289.017 203.96 289.537 204.187 290.071 204.4L293.791 206C294.537 206.32 295.244 206.693 295.911 207.12C296.577 207.52 297.151 208 297.631 208.56C298.111 209.093 298.484 209.733 298.751 210.48C299.044 211.2 299.191 212.04 299.191 213C299.191 214.04 298.977 215.013 298.551 215.92C298.151 216.827 297.564 217.627 296.791 218.32C296.017 218.987 295.084 219.52 293.991 219.92C292.897 220.293 291.657 220.48 290.271 220.48C288.431 220.48 286.724 220.133 285.151 219.44C283.577 218.747 282.217 217.8 281.071 216.6L283.071 214.28Z" fill="#77838C"/>
<path d="M47.6 238.923H54.16C58.2133 238.923 61.2933 240.043 63.4 242.283C65.5067 244.523 66.56 247.736 66.56 251.923C66.56 254.003 66.2933 255.87 65.76 257.523C65.2267 259.15 64.44 260.536 63.4 261.683C62.36 262.803 61.08 263.67 59.56 264.283C58.04 264.87 56.2933 265.163 54.32 265.163H47.6V238.923ZM53.92 262.443C56.9867 262.443 59.28 261.523 60.8 259.683C62.3467 257.843 63.12 255.256 63.12 251.923C63.12 248.59 62.3467 246.043 60.8 244.283C59.28 242.523 56.9867 241.643 53.92 241.643H50.92V262.443H53.92ZM72.2094 238.923H87.3294V241.723H75.5294V249.963H85.4894V252.803H75.5294V262.323H87.7294V265.163H72.2094V238.923ZM93.3831 259.443C94.3165 260.43 95.4098 261.23 96.6631 261.843C97.9431 262.43 99.2631 262.723 100.623 262.723C102.356 262.723 103.703 262.336 104.663 261.563C105.623 260.763 106.103 259.723 106.103 258.443C106.103 257.776 105.983 257.216 105.743 256.763C105.53 256.283 105.223 255.883 104.823 255.563C104.45 255.216 103.996 254.91 103.463 254.643C102.93 254.376 102.356 254.096 101.743 253.803L97.9831 252.163C97.3698 251.896 96.7431 251.576 96.1031 251.203C95.4631 250.83 94.8898 250.376 94.3831 249.843C93.8765 249.31 93.4631 248.683 93.1431 247.963C92.8231 247.216 92.6631 246.363 92.6631 245.403C92.6631 244.416 92.8631 243.496 93.2631 242.643C93.6898 241.79 94.2631 241.056 94.9831 240.443C95.7298 239.803 96.5965 239.31 97.5831 238.963C98.5965 238.616 99.7031 238.443 100.903 238.443C102.476 238.443 103.93 238.75 105.263 239.363C106.596 239.95 107.73 240.723 108.663 241.683L106.863 243.843C106.063 243.07 105.17 242.47 104.183 242.043C103.223 241.59 102.13 241.363 100.903 241.363C99.4365 241.363 98.2498 241.71 97.3431 242.403C96.4631 243.07 96.0231 244.003 96.0231 245.203C96.0231 245.843 96.1431 246.39 96.3831 246.843C96.6498 247.27 96.9965 247.656 97.4231 248.003C97.8498 248.323 98.3165 248.616 98.8231 248.883C99.3298 249.123 99.8498 249.35 100.383 249.563L104.103 251.163C104.85 251.483 105.556 251.856 106.223 252.283C106.89 252.683 107.463 253.163 107.943 253.723C108.423 254.256 108.796 254.896 109.063 255.643C109.356 256.363 109.503 257.203 109.503 258.163C109.503 259.203 109.29 260.176 108.863 261.083C108.463 261.99 107.876 262.79 107.103 263.483C106.33 264.15 105.396 264.683 104.303 265.083C103.21 265.456 101.97 265.643 100.583 265.643C98.7431 265.643 97.0365 265.296 95.4631 264.603C93.8898 263.91 92.5298 262.963 91.3831 261.763L93.3831 259.443ZM114.67 238.923H117.99V265.163H114.67V238.923ZM123.658 252.043C123.658 249.936 123.951 248.043 124.538 246.363C125.151 244.683 125.991 243.256 127.058 242.083C128.151 240.91 129.431 240.016 130.898 239.403C132.365 238.763 133.978 238.443 135.738 238.443C137.551 238.443 139.058 238.79 140.258 239.483C141.485 240.15 142.485 240.883 143.258 241.683L141.378 243.803C140.711 243.11 139.938 242.536 139.058 242.083C138.205 241.603 137.111 241.363 135.778 241.363C134.445 241.363 133.245 241.616 132.178 242.123C131.111 242.603 130.205 243.31 129.458 244.243C128.711 245.15 128.125 246.256 127.698 247.563C127.298 248.87 127.098 250.336 127.098 251.963C127.098 253.616 127.285 255.11 127.658 256.443C128.058 257.75 128.618 258.87 129.338 259.803C130.085 260.736 130.991 261.456 132.058 261.963C133.151 262.47 134.405 262.723 135.818 262.723C136.751 262.723 137.631 262.59 138.458 262.323C139.311 262.03 140.005 261.643 140.538 261.163V254.323H134.978V251.563H143.578V262.603C142.725 263.483 141.591 264.216 140.178 264.803C138.791 265.363 137.218 265.643 135.458 265.643C133.725 265.643 132.138 265.336 130.698 264.723C129.258 264.11 128.018 263.23 126.978 262.083C125.938 260.91 125.125 259.483 124.538 257.803C123.951 256.096 123.658 254.176 123.658 252.043ZM149.866 238.923H153.306L162.786 255.403L165.626 260.843H165.786C165.706 259.51 165.612 258.136 165.506 256.723C165.426 255.283 165.386 253.87 165.386 252.483V238.923H168.546V265.163H165.106L155.586 248.643L152.746 243.243H152.586C152.692 244.576 152.786 245.936 152.866 247.323C152.972 248.683 153.026 250.056 153.026 251.443V265.163H149.866V238.923ZM175.844 259.443C176.777 260.43 177.871 261.23 179.124 261.843C180.404 262.43 181.724 262.723 183.084 262.723C184.817 262.723 186.164 262.336 187.124 261.563C188.084 260.763 188.564 259.723 188.564 258.443C188.564 257.776 188.444 257.216 188.204 256.763C187.991 256.283 187.684 255.883 187.284 255.563C186.911 255.216 186.457 254.91 185.924 254.643C185.391 254.376 184.817 254.096 184.204 253.803L180.444 252.163C179.831 251.896 179.204 251.576 178.564 251.203C177.924 250.83 177.351 250.376 176.844 249.843C176.337 249.31 175.924 248.683 175.604 247.963C175.284 247.216 175.124 246.363 175.124 245.403C175.124 244.416 175.324 243.496 175.724 242.643C176.151 241.79 176.724 241.056 177.444 240.443C178.191 239.803 179.057 239.31 180.044 238.963C181.057 238.616 182.164 238.443 183.364 238.443C184.937 238.443 186.391 238.75 187.724 239.363C189.057 239.95 190.191 240.723 191.124 241.683L189.324 243.843C188.524 243.07 187.631 242.47 186.644 242.043C185.684 241.59 184.591 241.363 183.364 241.363C181.897 241.363 180.711 241.71 179.804 242.403C178.924 243.07 178.484 244.003 178.484 245.203C178.484 245.843 178.604 246.39 178.844 246.843C179.111 247.27 179.457 247.656 179.884 248.003C180.311 248.323 180.777 248.616 181.284 248.883C181.791 249.123 182.311 249.35 182.844 249.563L186.564 251.163C187.311 251.483 188.017 251.856 188.684 252.283C189.351 252.683 189.924 253.163 190.404 253.723C190.884 254.256 191.257 254.896 191.524 255.643C191.817 256.363 191.964 257.203 191.964 258.163C191.964 259.203 191.751 260.176 191.324 261.083C190.924 261.99 190.337 262.79 189.564 263.483C188.791 264.15 187.857 264.683 186.764 265.083C185.671 265.456 184.431 265.643 183.044 265.643C181.204 265.643 179.497 265.296 177.924 264.603C176.351 263.91 174.991 262.963 173.844 261.763L175.844 259.443ZM201.098 255.003L193.218 238.923H196.778L200.178 246.323C200.604 247.283 201.018 248.23 201.418 249.163C201.818 250.096 202.244 251.056 202.698 252.043H202.858C203.311 251.056 203.764 250.096 204.218 249.163C204.671 248.23 205.098 247.283 205.498 246.323L208.858 238.923H212.338L204.458 255.003V265.163H201.098V255.003ZM215.336 259.443C216.27 260.43 217.363 261.23 218.616 261.843C219.896 262.43 221.216 262.723 222.576 262.723C224.31 262.723 225.656 262.336 226.616 261.563C227.576 260.763 228.056 259.723 228.056 258.443C228.056 257.776 227.936 257.216 227.696 256.763C227.483 256.283 227.176 255.883 226.776 255.563C226.403 255.216 225.95 254.91 225.416 254.643C224.883 254.376 224.31 254.096 223.696 253.803L219.936 252.163C219.323 251.896 218.696 251.576 218.056 251.203C217.416 250.83 216.843 250.376 216.336 249.843C215.83 249.31 215.416 248.683 215.096 247.963C214.776 247.216 214.616 246.363 214.616 245.403C214.616 244.416 214.816 243.496 215.216 242.643C215.643 241.79 216.216 241.056 216.936 240.443C217.683 239.803 218.55 239.31 219.536 238.963C220.55 238.616 221.656 238.443 222.856 238.443C224.43 238.443 225.883 238.75 227.216 239.363C228.55 239.95 229.683 240.723 230.616 241.683L228.816 243.843C228.016 243.07 227.123 242.47 226.136 242.043C225.176 241.59 224.083 241.363 222.856 241.363C221.39 241.363 220.203 241.71 219.296 242.403C218.416 243.07 217.976 244.003 217.976 245.203C217.976 245.843 218.096 246.39 218.336 246.843C218.603 247.27 218.95 247.656 219.376 248.003C219.803 248.323 220.27 248.616 220.776 248.883C221.283 249.123 221.803 249.35 222.336 249.563L226.056 251.163C226.803 251.483 227.51 251.856 228.176 252.283C228.843 252.683 229.416 253.163 229.896 253.723C230.376 254.256 230.75 254.896 231.016 255.643C231.31 256.363 231.456 257.203 231.456 258.163C231.456 259.203 231.243 260.176 230.816 261.083C230.416 261.99 229.83 262.79 229.056 263.483C228.283 264.15 227.35 264.683 226.256 265.083C225.163 265.456 223.923 265.643 222.536 265.643C220.696 265.643 218.99 265.296 217.416 264.603C215.843 263.91 214.483 262.963 213.336 261.763L215.336 259.443ZM241.282 241.723H233.362V238.923H252.562V241.723H244.642V265.163H241.282V241.723ZM257.288 238.923H272.408V241.723H260.608V249.963H270.568V252.803H260.608V262.323H272.808V265.163H257.288V238.923ZM278.381 238.923H282.301L287.381 253.003L289.301 258.363H289.461L291.301 253.003L296.341 238.923H300.261V265.163H297.101V250.723C297.101 249.55 297.141 248.256 297.221 246.843C297.328 245.43 297.435 244.136 297.541 242.963H297.381L295.261 248.803L290.221 262.523H288.341L283.261 248.803L281.181 242.963H281.021C281.101 244.136 281.195 245.43 281.301 246.843C281.408 248.256 281.461 249.55 281.461 250.723V265.163H278.381V238.923Z" fill="#77838C"/>
<path d="M62.7602 130.38C62.7602 141.395 64.9519 149.544 69.3353 154.827C73.8312 159.997 79.451 162.582 86.1947 162.582C89.9038 162.582 93.1633 161.851 95.9732 160.39C98.8954 158.817 101.93 156.288 105.077 152.803V106.103C101.256 102.731 97.8277 100.427 94.793 99.1906C91.7583 97.9542 88.836 97.3361 86.0261 97.3361C81.8675 97.3361 77.9898 98.5162 74.3931 100.877C70.9089 103.124 68.099 106.721 65.9635 111.667C63.8279 116.5 62.7602 122.738 62.7602 130.38ZM106.763 171.686L105.583 160.053C102.661 163.874 99.2888 166.853 95.4674 168.988C91.7583 171.124 87.2625 172.192 81.9799 172.192C75.1237 172.192 69.1105 170.45 63.9403 166.965C58.7701 163.481 54.7239 158.648 51.8016 152.466C48.9917 146.172 47.5867 138.923 47.5867 130.718C47.5867 122.063 49.1603 114.533 52.3074 108.126C55.4544 101.719 59.7255 96.7179 65.1205 93.1212C70.5155 89.5245 76.6411 87.7262 83.4972 87.7262C87.4311 87.7262 91.1963 88.513 94.793 90.0865C98.5021 91.6601 102.099 94.5262 105.583 98.6848V60.5826L91.2525 58.8967V52.9959L117.553 45.4092L119.913 46.7579L119.239 70.6982V161.907L132.895 163.931V170L106.763 171.686ZM160.103 130.38C160.103 141.395 162.295 149.544 166.679 154.827C171.174 159.997 176.794 162.582 183.538 162.582C187.247 162.582 190.506 161.851 193.316 160.39C196.239 158.817 199.273 156.288 202.42 152.803V106.103C198.599 102.731 195.171 100.427 192.136 99.1906C189.101 97.9542 186.179 97.3361 183.369 97.3361C179.211 97.3361 175.333 98.5162 171.736 100.877C168.252 103.124 165.442 106.721 163.307 111.667C161.171 116.5 160.103 122.738 160.103 130.38ZM204.106 171.686L202.926 160.053C200.004 163.874 196.632 166.853 192.811 168.988C189.101 171.124 184.606 172.192 179.323 172.192C172.467 172.192 166.454 170.45 161.284 166.965C156.113 163.481 152.067 158.648 149.145 152.466C146.335 146.172 144.93 138.923 144.93 130.718C144.93 122.063 146.503 114.533 149.651 108.126C152.798 101.719 157.069 96.7179 162.464 93.1212C167.859 89.5245 173.984 87.7262 180.84 87.7262C184.774 87.7262 188.54 88.513 192.136 90.0865C195.845 91.6601 199.442 94.5262 202.926 98.6848V60.5826L188.596 58.8967V52.9959L214.896 45.4092L217.257 46.7579L216.582 70.6982V161.907L230.238 163.931V170L204.106 171.686ZM268.405 172.192C263.684 172.192 259.357 171.63 255.423 170.506C251.49 169.494 247.443 167.921 243.285 165.785L242.61 147.24H251.883L255.086 161.907C259.02 163.706 263.572 164.605 268.742 164.605C275.149 164.605 279.87 163.425 282.904 161.065C286.051 158.704 287.625 155.613 287.625 151.792C287.625 148.195 286.332 145.329 283.747 143.194C281.162 140.946 277.228 138.923 271.946 137.124L264.19 134.258C258.009 132.01 253.063 129.088 249.354 125.491C245.645 121.895 243.79 117.23 243.79 111.498C243.79 107.339 244.914 103.462 247.162 99.865C249.41 96.2683 252.726 93.346 257.109 91.0981C261.493 88.8502 266.832 87.7262 273.126 87.7262C277.734 87.7262 281.893 88.3444 285.602 89.5807C289.423 90.7047 293.132 92.3906 296.729 94.6386L296.055 111.835H287.288L284.59 98.3476C280.769 96.4369 276.891 95.4815 272.957 95.4815C267.787 95.4815 263.853 96.5493 261.156 98.6848C258.57 100.708 257.278 103.462 257.278 106.946C257.278 110.655 258.402 113.465 260.65 115.376C263.01 117.286 267.056 119.309 272.789 121.445L278.015 123.3C286.445 126.447 292.402 130.043 295.886 134.09C299.483 138.136 301.281 142.8 301.281 148.083C301.281 152.354 300.045 156.344 297.572 160.053C295.099 163.65 291.446 166.572 286.613 168.82C281.78 171.068 275.711 172.192 268.405 172.192Z" fill="#2A638C"/>
</svg>
